ply
format ascii 1.0
comment Exported by GroIMP
element vertex 240
property float x
property float y
property float z
property uchar red
property uchar green
property uchar blue
property float alpha
element face 240
property list uchar int vertex_indices
end_header
-16.79442 -8.03633 1.73679 0 0 0 1.0
-16.82449 -7.94752 1.77157 0 0 0 1.0
-16.88914 -8.06839 1.73679 0 0 0 1.0
-16.91921 -7.97959 1.77157 0 0 0 1.0
-16.54336 -7.68687 1.79879 0 0 0 1.0
-16.51325 -7.6376 1.88044 0 0 0 1.0
-16.62869 -7.63472 1.79879 0 0 0 1.0
-16.59857 -7.58545 1.88044 0 0 0 1.0
-16.44377 -7.8276 1.81979 0 0 0 1.0
-16.39099 -7.82417 1.90466 0 0 0 1.0
-16.45026 -7.72781 1.81979 0 0 0 1.0
-16.39748 -7.72438 1.90466 0 0 0 1.0
-16.6694 -8.35409 1.78579 0 0 0 1.0
-16.66934 -8.31804 1.87907 0 0 0 1.0
-16.7694 -8.35393 1.78579 0 0 0 1.0
-16.76934 -8.31788 1.87907 0 0 0 1.0
-16.35967 -8.05798 1.75079 0 0 0 1.0
-16.33425 -8.12004 1.82497 0 0 0 1.0
-16.26714 -8.02007 1.75079 0 0 0 1.0
-16.24171 -8.08214 1.82497 0 0 0 1.0
-16.72853 -8.0211 1.89879 0 0 0 1.0
-16.74623 -7.92669 1.92658 0 0 0 1.0
-16.82682 -8.03953 1.89879 0 0 0 1.0
-16.84452 -7.94511 1.92658 0 0 0 1.0
-16.23971 -7.71756 1.85379 0 0 0 1.0
-16.33813 -7.7116 1.87044 0 0 0 1.0
-16.24576 -7.81738 1.85379 0 0 0 1.0
-16.34418 -7.81141 1.87044 0 0 0 1.0
-16.86793 -7.76665 1.61479 0 0 0 1.0
-16.87456 -7.86268 1.64187 0 0 0 1.0
-16.76817 -7.77354 1.61479 0 0 0 1.0
-16.7748 -7.86957 1.64187 0 0 0 1.0
-16.93601 -8.58083 1.61579 0 0 0 1.0
-16.98696 -8.50793 1.6615 0 0 0 1.0
-17.01797 -8.63812 1.61579 0 0 0 1.0
-17.06893 -8.56522 1.6615 0 0 0 1.0
-16.64222 -7.7103 1.68979 0 0 0 1.0
-16.64916 -7.70515 1.78942 0 0 0 1.0
-16.70179 -7.79063 1.68979 0 0 0 1.0
-16.70873 -7.78548 1.78942 0 0 0 1.0
-17.0198 -7.89725 1.71079 0 0 0 1.0
-17.03891 -7.98867 1.74655 0 0 0 1.0
-16.92191 -7.91772 1.71079 0 0 0 1.0
-16.94103 -8.00914 1.74655 0 0 0 1.0
-16.8709 -8.15795 1.78679 0 0 0 1.0
-16.81945 -8.2336 1.82718 0 0 0 1.0
-16.78822 -8.10171 1.78679 0 0 0 1.0
-16.73676 -8.17735 1.82718 0 0 0 1.0
-16.64658 -8.24528 1.69479 0 0 0 1.0
-16.73638 -8.22306 1.73277 0 0 0 1.0
-16.6706 -8.34236 1.69479 0 0 0 1.0
-16.7604 -8.32014 1.73277 0 0 0 1.0
-16.14705 -8.0636 1.73179 0 0 0 1.0
-16.21546 -8.02651 1.7946 0 0 0 1.0
-16.19471 -8.15151 1.73179 0 0 0 1.0
-16.26312 -8.11442 1.7946 0 0 0 1.0
-17.16281 -7.74294 1.77979 0 0 0 1.0
-17.18812 -7.83923 1.78913 0 0 0 1.0
-17.06609 -7.76836 1.77979 0 0 0 1.0
-17.09141 -7.86465 1.78913 0 0 0 1.0
-16.89428 -8.57234 1.84479 0 0 0 1.0
-16.8586 -8.65573 1.88691 0 0 0 1.0
-16.80234 -8.53301 1.84479 0 0 0 1.0
-16.76666 -8.61639 1.88691 0 0 0 1.0
-16.27247 -7.7909 1.80779 0 0 0 1.0
-16.34849 -7.8434 1.84606 0 0 0 1.0
-16.21564 -7.87317 1.80779 0 0 0 1.0
-16.29165 -7.92568 1.84606 0 0 0 1.0
-16.11444 -7.86631 1.74979 0 0 0 1.0
-16.16692 -7.7949 1.79612 0 0 0 1.0
-16.19502 -7.92553 1.74979 0 0 0 1.0
-16.2475 -7.85412 1.79612 0 0 0 1.0
-16.42144 -8.44063 1.71179 0 0 0 1.0
-16.45394 -8.48152 1.79707 0 0 0 1.0
-16.34316 -8.50286 1.71179 0 0 0 1.0
-16.37566 -8.54375 1.79707 0 0 0 1.0
-16.91813 -7.78454 1.82479 0 0 0 1.0
-16.84301 -7.71893 1.83189 0 0 0 1.0
-16.98392 -7.70923 1.82479 0 0 0 1.0
-16.90879 -7.64361 1.83189 0 0 0 1.0
-16.29289 -8.03118 1.71679 0 0 0 1.0
-16.28248 -7.98579 1.80529 0 0 0 1.0
-16.39036 -8.00882 1.71679 0 0 0 1.0
-16.37995 -7.96344 1.80529 0 0 0 1.0
-16.73769 -8.36249 1.72679 0 0 0 1.0
-16.82985 -8.34457 1.76122 0 0 0 1.0
-16.75679 -8.46065 1.72679 0 0 0 1.0
-16.84894 -8.44273 1.76122 0 0 0 1.0
-17.12645 -8.11669 1.77679 0 0 0 1.0
-17.03359 -8.13287 1.81019 0 0 0 1.0
-17.10929 -8.01818 1.77679 0 0 0 1.0
-17.01643 -8.03435 1.81019 0 0 0 1.0
-16.50839 -8.58077 1.75479 0 0 0 1.0
-16.51097 -8.51647 1.83133 0 0 0 1.0
-16.60831 -8.58478 1.75479 0 0 0 1.0
-16.61089 -8.52047 1.83133 0 0 0 1.0
-17.15104 -8.63161 1.72179 0 0 0 1.0
-17.07601 -8.67555 1.77119 0 0 0 1.0
-17.1005 -8.54532 1.72179 0 0 0 1.0
-17.02547 -8.58926 1.77119 0 0 0 1.0
-16.61504 -8.37425 1.71879 0 0 0 1.0
-16.55348 -8.32725 1.78205 0 0 0 1.0
-16.67573 -8.29477 1.71879 0 0 0 1.0
-16.61417 -8.24777 1.78205 0 0 0 1.0
-16.23336 -8.06454 1.74879 0 0 0 1.0
-16.21025 -8.08849 1.84309 0 0 0 1.0
-16.1614 -7.9951 1.74879 0 0 0 1.0
-16.13829 -8.01905 1.84309 0 0 0 1.0
-16.60316 -8.45536 1.87579 0 0 0 1.0
-16.62935 -8.54855 1.90092 0 0 0 1.0
-16.50689 -8.48242 1.87579 0 0 0 1.0
-16.53308 -8.5756 1.90092 0 0 0 1.0
-17.16908 -8.13268 1.65979 0 0 0 1.0
-17.24539 -8.19374 1.68098 0 0 0 1.0
-17.1066 -8.21076 1.65979 0 0 0 1.0
-17.18291 -8.27182 1.68098 0 0 0 1.0
-17.02989 -8.54757 1.75979 0 0 0 1.0
-16.98163 -8.49463 1.82956 0 0 0 1.0
-17.10379 -8.48021 1.75979 0 0 0 1.0
-17.05553 -8.42726 1.82956 0 0 0 1.0
-16.71143 -7.82424 1.76779 0 0 0 1.0
-16.69711 -7.72618 1.78116 0 0 0 1.0
-16.81038 -7.8098 1.76779 0 0 0 1.0
-16.79606 -7.71173 1.78116 0 0 0 1.0
-16.57905 -7.94434 1.84379 0 0 0 1.0
-16.55322 -8.03284 1.88253 0 0 0 1.0
-16.48306 -7.91632 1.84379 0 0 0 1.0
-16.45722 -8.00482 1.88253 0 0 0 1.0
-16.19119 -8.58162 1.91879 0 0 0 1.0
-16.22843 -8.53531 1.99922 0 0 0 1.0
-16.26912 -8.64429 1.91879 0 0 0 1.0
-16.30636 -8.59798 1.99922 0 0 0 1.0
-16.17654 -8.32393 1.73479 0 0 0 1.0
-16.26695 -8.30034 1.77042 0 0 0 1.0
-16.20179 -8.42069 1.73479 0 0 0 1.0
-16.2922 -8.3971 1.77042 0 0 0 1.0
-16.3377 -8.32507 1.60179 0 0 0 1.0
-16.36784 -8.37164 1.685 0 0 0 1.0
-16.25375 -8.3794 1.60179 0 0 0 1.0
-16.28388 -8.42597 1.685 0 0 0 1.0
-16.17046 -7.7581 1.91879 0 0 0 1.0
-16.23784 -7.79105 1.98494 0 0 0 1.0
-16.12653 -7.84794 1.91879 0 0 0 1.0
-16.19391 -7.88088 1.98494 0 0 0 1.0
-16.27831 -7.75208 1.76579 0 0 0 1.0
-16.23395 -7.83327 1.80374 0 0 0 1.0
-16.19056 -7.70413 1.76579 0 0 0 1.0
-16.14619 -7.78532 1.80374 0 0 0 1.0
-16.20955 -8.06413 1.68879 0 0 0 1.0
-16.1594 -8.13171 1.7428 0 0 0 1.0
-16.12924 -8.00454 1.68879 0 0 0 1.0
-16.07909 -8.07212 1.7428 0 0 0 1.0
-16.52708 -8.65385 1.68879 0 0 0 1.0
-16.47779 -8.66822 1.77461 0 0 0 1.0
-16.49909 -8.55785 1.68879 0 0 0 1.0
-16.4498 -8.57222 1.77461 0 0 0 1.0
-16.17315 -8.34063 1.87979 0 0 0 1.0
-16.10225 -8.35573 1.94868 0 0 0 1.0
-16.15234 -8.24283 1.87979 0 0 0 1.0
-16.08143 -8.25792 1.94868 0 0 0 1.0
-16.76071 -8.2798 1.84679 0 0 0 1.0
-16.79198 -8.32144 1.93217 0 0 0 1.0
-16.68075 -8.33985 1.84679 0 0 0 1.0
-16.71202 -8.38149 1.93217 0 0 0 1.0
-17.04799 -8.58047 1.77979 0 0 0 1.0
-17.02725 -8.64714 1.85137 0 0 0 1.0
-16.95251 -8.55076 1.77979 0 0 0 1.0
-16.93176 -8.61744 1.85137 0 0 0 1.0
-16.27214 -7.997 1.84879 0 0 0 1.0
-16.17677 -8.00984 1.87599 0 0 0 1.0
-16.2588 -7.89789 1.84879 0 0 0 1.0
-16.16343 -7.91073 1.87599 0 0 0 1.0
-16.56065 -8.37758 1.70079 0 0 0 1.0
-16.50599 -8.29746 1.72515 0 0 0 1.0
-16.64326 -8.32122 1.70079 0 0 0 1.0
-16.5886 -8.2411 1.72515 0 0 0 1.0
-16.43366 -8.57585 1.59879 0 0 0 1.0
-16.33987 -8.56346 1.6312 0 0 0 1.0
-16.44676 -8.47671 1.59879 0 0 0 1.0
-16.35297 -8.46432 1.6312 0 0 0 1.0
-16.56332 -7.94088 1.70479 0 0 0 1.0
-16.63274 -7.88447 1.74951 0 0 0 1.0
-16.62638 -8.01849 1.70479 0 0 0 1.0
-16.6958 -7.96208 1.74951 0 0 0 1.0
-17.14001 -7.6861 1.74479 0 0 0 1.0
-17.11296 -7.78025 1.76488 0 0 0 1.0
-17.04389 -7.65849 1.74479 0 0 0 1.0
-17.01684 -7.75264 1.76488 0 0 0 1.0
-16.9444 -7.79425 1.69579 0 0 0 1.0
-16.90587 -7.80412 1.78754 0 0 0 1.0
-16.91959 -7.69738 1.69579 0 0 0 1.0
-16.88105 -7.70725 1.78754 0 0 0 1.0
-16.19383 -8.43363 1.74379 0 0 0 1.0
-16.2236 -8.4728 1.83085 0 0 0 1.0
-16.11422 -8.49414 1.74379 0 0 0 1.0
-16.14399 -8.53331 1.83085 0 0 0 1.0
-16.36295 -7.67445 1.95379 0 0 0 1.0
-16.34897 -7.76447 1.99504 0 0 0 1.0
-16.26413 -7.65911 1.95379 0 0 0 1.0
-16.25016 -7.74913 1.99504 0 0 0 1.0
-16.79252 -8.36447 1.70679 0 0 0 1.0
-16.84286 -8.38809 1.78991 0 0 0 1.0
-16.75004 -8.455 1.70679 0 0 0 1.0
-16.80038 -8.47862 1.78991 0 0 0 1.0
-16.67104 -8.59306 1.89079 0 0 0 1.0
-16.76715 -8.57224 1.90895 0 0 0 1.0
-16.69222 -8.6908 1.89079 0 0 0 1.0
-16.78833 -8.66997 1.90895 0 0 0 1.0
-17.16207 -8.24254 1.92079 0 0 0 1.0
-17.10363 -8.31848 1.9494 0 0 0 1.0
-17.08282 -8.18155 1.92079 0 0 0 1.0
-17.02438 -8.25749 1.9494 0 0 0 1.0
-16.82599 -7.80091 1.72179 0 0 0 1.0
-16.79844 -7.80176 1.81792 0 0 0 1.0
-16.82291 -7.70096 1.72179 0 0 0 1.0
-16.79536 -7.70181 1.81792 0 0 0 1.0
-16.40307 -8.12665 1.75779 0 0 0 1.0
-16.47063 -8.05679 1.78138 0 0 0 1.0
-16.47496 -8.19616 1.75779 0 0 0 1.0
-16.54251 -8.12631 1.78138 0 0 0 1.0
-16.7942 -8.62535 1.68179 0 0 0 1.0
-16.71631 -8.65183 1.73865 0 0 0 1.0
-16.76201 -8.53067 1.68179 0 0 0 1.0
-16.68412 -8.55715 1.73865 0 0 0 1.0
-17.00366 -8.54548 1.93679 0 0 0 1.0
-16.93555 -8.4914 1.98616 0 0 0 1.0
-17.06584 -8.46716 1.93679 0 0 0 1.0
-16.99773 -8.41308 1.98616 0 0 0 1.0
-17.07098 -7.81498 1.81579 0 0 0 1.0
-17.11511 -7.78527 1.90047 0 0 0 1.0
-17.12682 -7.89793 1.81579 0 0 0 1.0
-17.17095 -7.86822 1.90047 0 0 0 1.0
-17.07308 -8.0532 1.78279 0 0 0 1.0
-17.14152 -8.03797 1.85409 0 0 0 1.0
-17.0948 -8.15082 1.78279 0 0 0 1.0
-17.16325 -8.13558 1.85409 0 0 0 1.0
-17.09582 -8.67722 1.85079 0 0 0 1.0
-17.03236 -8.62424 1.90706 0 0 0 1.0
-17.15991 -8.60047 1.85079 0 0 0 1.0
-17.09646 -8.54748 1.90706 0 0 0 1.0
3 1 0 2
3 1 2 3
3 1 2 0
3 1 3 2
3 5 4 6
3 5 6 7
3 5 6 4
3 5 7 6
3 9 8 10
3 9 10 11
3 9 10 8
3 9 11 10
3 13 12 14
3 13 14 15
3 13 14 12
3 13 15 14
3 17 16 18
3 17 18 19
3 17 18 16
3 17 19 18
3 21 20 22
3 21 22 23
3 21 22 20
3 21 23 22
3 25 24 26
3 25 26 27
3 25 26 24
3 25 27 26
3 29 28 30
3 29 30 31
3 29 30 28
3 29 31 30
3 33 32 34
3 33 34 35
3 33 34 32
3 33 35 34
3 37 36 38
3 37 38 39
3 37 38 36
3 37 39 38
3 41 40 42
3 41 42 43
3 41 42 40
3 41 43 42
3 45 44 46
3 45 46 47
3 45 46 44
3 45 47 46
3 49 48 50
3 49 50 51
3 49 50 48
3 49 51 50
3 53 52 54
3 53 54 55
3 53 54 52
3 53 55 54
3 57 56 58
3 57 58 59
3 57 58 56
3 57 59 58
3 61 60 62
3 61 62 63
3 61 62 60
3 61 63 62
3 65 64 66
3 65 66 67
3 65 66 64
3 65 67 66
3 69 68 70
3 69 70 71
3 69 70 68
3 69 71 70
3 73 72 74
3 73 74 75
3 73 74 72
3 73 75 74
3 77 76 78
3 77 78 79
3 77 78 76
3 77 79 78
3 81 80 82
3 81 82 83
3 81 82 80
3 81 83 82
3 85 84 86
3 85 86 87
3 85 86 84
3 85 87 86
3 89 88 90
3 89 90 91
3 89 90 88
3 89 91 90
3 93 92 94
3 93 94 95
3 93 94 92
3 93 95 94
3 97 96 98
3 97 98 99
3 97 98 96
3 97 99 98
3 101 100 102
3 101 102 103
3 101 102 100
3 101 103 102
3 105 104 106
3 105 106 107
3 105 106 104
3 105 107 106
3 109 108 110
3 109 110 111
3 109 110 108
3 109 111 110
3 113 112 114
3 113 114 115
3 113 114 112
3 113 115 114
3 117 116 118
3 117 118 119
3 117 118 116
3 117 119 118
3 121 120 122
3 121 122 123
3 121 122 120
3 121 123 122
3 125 124 126
3 125 126 127
3 125 126 124
3 125 127 126
3 129 128 130
3 129 130 131
3 129 130 128
3 129 131 130
3 133 132 134
3 133 134 135
3 133 134 132
3 133 135 134
3 137 136 138
3 137 138 139
3 137 138 136
3 137 139 138
3 141 140 142
3 141 142 143
3 141 142 140
3 141 143 142
3 145 144 146
3 145 146 147
3 145 146 144
3 145 147 146
3 149 148 150
3 149 150 151
3 149 150 148
3 149 151 150
3 153 152 154
3 153 154 155
3 153 154 152
3 153 155 154
3 157 156 158
3 157 158 159
3 157 158 156
3 157 159 158
3 161 160 162
3 161 162 163
3 161 162 160
3 161 163 162
3 165 164 166
3 165 166 167
3 165 166 164
3 165 167 166
3 169 168 170
3 169 170 171
3 169 170 168
3 169 171 170
3 173 172 174
3 173 174 175
3 173 174 172
3 173 175 174
3 177 176 178
3 177 178 179
3 177 178 176
3 177 179 178
3 181 180 182
3 181 182 183
3 181 182 180
3 181 183 182
3 185 184 186
3 185 186 187
3 185 186 184
3 185 187 186
3 189 188 190
3 189 190 191
3 189 190 188
3 189 191 190
3 193 192 194
3 193 194 195
3 193 194 192
3 193 195 194
3 197 196 198
3 197 198 199
3 197 198 196
3 197 199 198
3 201 200 202
3 201 202 203
3 201 202 200
3 201 203 202
3 205 204 206
3 205 206 207
3 205 206 204
3 205 207 206
3 209 208 210
3 209 210 211
3 209 210 208
3 209 211 210
3 213 212 214
3 213 214 215
3 213 214 212
3 213 215 214
3 217 216 218
3 217 218 219
3 217 218 216
3 217 219 218
3 221 220 222
3 221 222 223
3 221 222 220
3 221 223 222
3 225 224 226
3 225 226 227
3 225 226 224
3 225 227 226
3 229 228 230
3 229 230 231
3 229 230 228
3 229 231 230
3 233 232 234
3 233 234 235
3 233 234 232
3 233 235 234
3 237 236 238
3 237 238 239
3 237 238 236
3 237 239 238

