ply
format ascii 1.0
comment Exported by GroIMP
element vertex 524
property float x
property float y
property float z
property uchar red
property uchar green
property uchar blue
property float alpha
element face 524
property list uchar int vertex_indices
end_header
-16.90738 -7.81803 1.72079 0 0 0 1.0
-16.96432 -7.76887 1.78668 0 0 0 1.0
-16.97273 -7.89372 1.72079 0 0 0 1.0
-17.02967 -7.84456 1.78668 0 0 0 1.0
-16.66287 -8.42345 1.73479 0 0 0 1.0
-16.66921 -8.43045 1.83435 0 0 0 1.0
-16.58881 -8.49065 1.73479 0 0 0 1.0
-16.59515 -8.49764 1.83435 0 0 0 1.0
-16.59405 -7.76118 1.64079 0 0 0 1.0
-16.5448 -7.84575 1.66136 0 0 0 1.0
-16.50764 -7.71086 1.64079 0 0 0 1.0
-16.45839 -7.79542 1.66136 0 0 0 1.0
-16.17545 -8.55994 1.81679 0 0 0 1.0
-16.09705 -8.51056 1.85442 0 0 0 1.0
-16.22874 -8.47533 1.81679 0 0 0 1.0
-16.15035 -8.42595 1.85442 0 0 0 1.0
-16.66465 -7.90947 1.71579 0 0 0 1.0
-16.62185 -7.96974 1.78315 0 0 0 1.0
-16.58312 -7.85157 1.71579 0 0 0 1.0
-16.54032 -7.91183 1.78315 0 0 0 1.0
-16.4854 -7.74309 1.77079 0 0 0 1.0
-16.48267 -7.84159 1.78783 0 0 0 1.0
-16.38544 -7.74032 1.77079 0 0 0 1.0
-16.38271 -7.83882 1.78783 0 0 0 1.0
-17.03315 -8.50733 1.78579 0 0 0 1.0
-17.08768 -8.42937 1.81663 0 0 0 1.0
-17.1151 -8.56464 1.78579 0 0 0 1.0
-17.16962 -8.48669 1.81663 0 0 0 1.0
-17.1136 -7.91164 1.69079 0 0 0 1.0
-17.17421 -7.92036 1.76985 0 0 0 1.0
-17.09936 -8.01063 1.69079 0 0 0 1.0
-17.15998 -8.01934 1.76985 0 0 0 1.0
-16.24556 -7.93824 1.63879 0 0 0 1.0
-16.16686 -7.89828 1.6858 0 0 0 1.0
-16.29083 -7.84907 1.63879 0 0 0 1.0
-16.21213 -7.80911 1.6858 0 0 0 1.0
-16.66099 -8.23112 1.64879 0 0 0 1.0
-16.63056 -8.25689 1.7405 0 0 0 1.0
-16.59637 -8.15481 1.64879 0 0 0 1.0
-16.56594 -8.18058 1.7405 0 0 0 1.0
-16.42018 -7.83478 1.84579 0 0 0 1.0
-16.41147 -7.86635 1.94028 0 0 0 1.0
-16.32379 -7.80816 1.84579 0 0 0 1.0
-16.31507 -7.83974 1.94028 0 0 0 1.0
-17.17309 -7.91172 1.68879 0 0 0 1.0
-17.17671 -7.93328 1.78637 0 0 0 1.0
-17.07447 -7.92828 1.68879 0 0 0 1.0
-17.07809 -7.94985 1.78637 0 0 0 1.0
-16.88315 -8.56915 1.91379 0 0 0 1.0
-16.88576 -8.47032 1.92882 0 0 0 1.0
-16.98312 -8.57179 1.91379 0 0 0 1.0
-16.98573 -8.47296 1.92882 0 0 0 1.0
-16.92481 -8.02345 1.74579 0 0 0 1.0
-16.85619 -7.97902 1.80339 0 0 0 1.0
-16.97916 -7.93951 1.74579 0 0 0 1.0
-16.91054 -7.89508 1.80339 0 0 0 1.0
-17.04138 -8.40522 1.81879 0 0 0 1.0
-17.10614 -8.41431 1.89445 0 0 0 1.0
-17.02748 -8.50425 1.81879 0 0 0 1.0
-17.09224 -8.51334 1.89445 0 0 0 1.0
-16.67256 -8.26669 1.68079 0 0 0 1.0
-16.61754 -8.28771 1.76161 0 0 0 1.0
-16.63687 -8.17328 1.68079 0 0 0 1.0
-16.58186 -8.19429 1.76161 0 0 0 1.0
-16.47555 -7.83513 1.69179 0 0 0 1.0
-16.51699 -7.83382 1.7828 0 0 0 1.0
-16.4787 -7.93508 1.69179 0 0 0 1.0
-16.52013 -7.93377 1.7828 0 0 0 1.0
-16.49476 -7.95496 1.80079 0 0 0 1.0
-16.536 -7.86987 1.83333 0 0 0 1.0
-16.58475 -7.99858 1.80079 0 0 0 1.0
-16.62599 -7.91348 1.83333 0 0 0 1.0
-16.8828 -7.66032 1.93179 0 0 0 1.0
-16.88974 -7.71549 2.01491 0 0 0 1.0
-16.78358 -7.67281 1.93179 0 0 0 1.0
-16.79052 -7.72797 2.01491 0 0 0 1.0
-16.22154 -8.38238 1.78879 0 0 0 1.0
-16.13542 -8.33883 1.81498 0 0 0 1.0
-16.26667 -8.29314 1.78879 0 0 0 1.0
-16.18054 -8.24959 1.81498 0 0 0 1.0
-16.99311 -7.83978 1.79679 0 0 0 1.0
-16.95987 -7.7472 1.81479 0 0 0 1.0
-17.08723 -7.80599 1.79679 0 0 0 1.0
-17.05399 -7.71341 1.81479 0 0 0 1.0
-16.80001 -8.56116 1.80879 0 0 0 1.0
-16.77898 -8.57494 1.90558 0 0 0 1.0
-16.7452 -8.47752 1.80879 0 0 0 1.0
-16.72417 -8.49129 1.90558 0 0 0 1.0
-16.55091 -8.22937 1.75979 0 0 0 1.0
-16.58045 -8.14207 1.79861 0 0 0 1.0
-16.64564 -8.26142 1.75979 0 0 0 1.0
-16.67517 -8.17412 1.79861 0 0 0 1.0
-16.50687 -8.00733 1.86979 0 0 0 1.0
-16.4328 -8.03304 1.93187 0 0 0 1.0
-16.47407 -7.91286 1.86979 0 0 0 1.0
-16.4 -7.93857 1.93187 0 0 0 1.0
-16.36326 -8.09044 1.67879 0 0 0 1.0
-16.38127 -8.18461 1.70721 0 0 0 1.0
-16.26504 -8.10923 1.67879 0 0 0 1.0
-16.28305 -8.2034 1.70721 0 0 0 1.0
-16.80789 -8.59269 1.97879 0 0 0 1.0
-16.72097 -8.62053 2.01964 0 0 0 1.0
-16.77739 -8.49746 1.97879 0 0 0 1.0
-16.69047 -8.5253 2.01964 0 0 0 1.0
-16.92443 -8.2628 1.68379 0 0 0 1.0
-17.0215 -8.26321 1.70782 0 0 0 1.0
-16.924 -8.3628 1.68379 0 0 0 1.0
-17.02107 -8.36321 1.70782 0 0 0 1.0
-16.18268 -8.38568 1.64779 0 0 0 1.0
-16.1085 -8.43706 1.69089 0 0 0 1.0
-16.12574 -8.30347 1.64779 0 0 0 1.0
-16.05156 -8.35485 1.69089 0 0 0 1.0
-16.31921 -8.31036 1.68579 0 0 0 1.0
-16.22555 -8.30721 1.72068 0 0 0 1.0
-16.32258 -8.21042 1.68579 0 0 0 1.0
-16.22892 -8.20726 1.72068 0 0 0 1.0
-16.52437 -7.93221 1.71379 0 0 0 1.0
-16.52143 -7.93832 1.81356 0 0 0 1.0
-16.43426 -7.88885 1.71379 0 0 0 1.0
-16.43132 -7.89496 1.81356 0 0 0 1.0
-16.34583 -8.5246 1.78379 0 0 0 1.0
-16.30981 -8.61083 1.81937 0 0 0 1.0
-16.25356 -8.48605 1.78379 0 0 0 1.0
-16.21753 -8.57229 1.81937 0 0 0 1.0
-17.05426 -7.74104 1.85779 0 0 0 1.0
-17.09219 -7.76477 1.94722 0 0 0 1.0
-17.00121 -7.82581 1.85779 0 0 0 1.0
-17.03914 -7.84954 1.94722 0 0 0 1.0
-17.03681 -8.44607 1.95379 0 0 0 1.0
-17.10937 -8.38757 1.99004 0 0 0 1.0
-17.09957 -8.52392 1.95379 0 0 0 1.0
-17.17213 -8.46543 1.99004 0 0 0 1.0
-16.62302 -8.07247 1.72679 0 0 0 1.0
-16.70004 -8.06822 1.79043 0 0 0 1.0
-16.62854 -8.17232 1.72679 0 0 0 1.0
-16.70556 -8.16807 1.79043 0 0 0 1.0
-16.36176 -7.78904 1.74179 0 0 0 1.0
-16.28751 -7.7408 1.78826 0 0 0 1.0
-16.41625 -7.70519 1.74179 0 0 0 1.0
-16.342 -7.65694 1.78826 0 0 0 1.0
-16.55013 -8.53666 1.71279 0 0 0 1.0
-16.55957 -8.44191 1.74335 0 0 0 1.0
-16.64964 -8.54658 1.71279 0 0 0 1.0
-16.65908 -8.45183 1.74335 0 0 0 1.0
-16.79609 -8.30981 1.70779 0 0 0 1.0
-16.76022 -8.37449 1.77509 0 0 0 1.0
-16.70864 -8.26131 1.70779 0 0 0 1.0
-16.67277 -8.32599 1.77509 0 0 0 1.0
-16.58196 -8.26347 1.78379 0 0 0 1.0
-16.66286 -8.21033 1.80892 0 0 0 1.0
-16.63686 -8.34705 1.78379 0 0 0 1.0
-16.71776 -8.29391 1.80892 0 0 0 1.0
-16.35844 -8.07079 1.65279 0 0 0 1.0
-16.37961 -7.97393 1.66581 0 0 0 1.0
-16.45613 -8.09215 1.65279 0 0 0 1.0
-16.4773 -7.99528 1.66581 0 0 0 1.0
-16.86478 -8.38821 1.66079 0 0 0 1.0
-16.89616 -8.46607 1.71514 0 0 0 1.0
-16.77203 -8.4256 1.66079 0 0 0 1.0
-16.80341 -8.50345 1.71514 0 0 0 1.0
-16.54362 -7.75436 1.76779 0 0 0 1.0
-16.64247 -7.74288 1.77764 0 0 0 1.0
-16.55516 -7.8537 1.76779 0 0 0 1.0
-16.65401 -7.84221 1.77764 0 0 0 1.0
-16.89541 -8.66645 1.71779 0 0 0 1.0
-16.83692 -8.64684 1.7965 0 0 0 1.0
-16.9272 -8.57163 1.71779 0 0 0 1.0
-16.8687 -8.55202 1.7965 0 0 0 1.0
-16.79995 -8.60589 1.81179 0 0 0 1.0
-16.80136 -8.51801 1.85949 0 0 0 1.0
-16.89994 -8.60749 1.81179 0 0 0 1.0
-16.90134 -8.51961 1.85949 0 0 0 1.0
-17.14723 -8.16868 1.97479 0 0 0 1.0
-17.11164 -8.2601 1.99415 0 0 0 1.0
-17.05404 -8.1324 1.97479 0 0 0 1.0
-17.01845 -8.22382 1.99415 0 0 0 1.0
-16.31041 -7.98955 1.68179 0 0 0 1.0
-16.4039 -8.01132 1.70983 0 0 0 1.0
-16.28773 -8.08695 1.68179 0 0 0 1.0
-16.38122 -8.10872 1.70983 0 0 0 1.0
-16.99395 -8.52519 1.77279 0 0 0 1.0
-17.08095 -8.51397 1.8208 0 0 0 1.0
-17.00674 -8.62436 1.77279 0 0 0 1.0
-17.09374 -8.61314 1.8208 0 0 0 1.0
-16.50594 -7.73984 1.67879 0 0 0 1.0
-16.52338 -7.69762 1.76775 0 0 0 1.0
-16.59837 -7.77801 1.67879 0 0 0 1.0
-16.61581 -7.73579 1.76775 0 0 0 1.0
-17.04898 -7.93199 1.85579 0 0 0 1.0
-17.10734 -7.98709 1.91544 0 0 0 1.0
-16.98033 -8.00471 1.85579 0 0 0 1.0
-17.0387 -8.05981 1.91544 0 0 0 1.0
-16.51635 -7.75573 1.90779 0 0 0 1.0
-16.4312 -7.79521 1.94232 0 0 0 1.0
-16.47429 -7.66501 1.90779 0 0 0 1.0
-16.38914 -7.70448 1.94232 0 0 0 1.0
-16.45314 -8.28652 1.86179 0 0 0 1.0
-16.47096 -8.37161 1.9112 0 0 0 1.0
-16.35526 -8.30701 1.86179 0 0 0 1.0
-16.37308 -8.39211 1.9112 0 0 0 1.0
-16.43352 -8.00451 1.71879 0 0 0 1.0
-16.47665 -7.94212 1.78396 0 0 0 1.0
-16.51577 -8.06138 1.71879 0 0 0 1.0
-16.55891 -7.99899 1.78396 0 0 0 1.0
-16.43779 -7.78091 1.78779 0 0 0 1.0
-16.52673 -7.79614 1.83091 0 0 0 1.0
-16.42092 -7.87948 1.78779 0 0 0 1.0
-16.50985 -7.8947 1.83091 0 0 0 1.0
-16.76631 -8.49428 1.80879 0 0 0 1.0
-16.70261 -8.44583 1.86875 0 0 0 1.0
-16.82685 -8.41468 1.80879 0 0 0 1.0
-16.76315 -8.36623 1.86875 0 0 0 1.0
-16.44339 -8.3987 1.93879 0 0 0 1.0
-16.422 -8.32762 2.00581 0 0 0 1.0
-16.53914 -8.36988 1.93879 0 0 0 1.0
-16.51776 -8.29881 2.00581 0 0 0 1.0
-16.80594 -8.16414 1.71279 0 0 0 1.0
-16.84364 -8.16121 1.80537 0 0 0 1.0
-16.81369 -8.26384 1.71279 0 0 0 1.0
-16.85139 -8.26091 1.80537 0 0 0 1.0
-16.62177 -8.12305 1.79279 0 0 0 1.0
-16.59444 -8.0337 1.82842 0 0 0 1.0
-16.7174 -8.09381 1.79279 0 0 0 1.0
-16.69007 -8.00446 1.82842 0 0 0 1.0
-16.22185 -8.10694 1.73479 0 0 0 1.0
-16.30289 -8.0484 1.73727 0 0 0 1.0
-16.28042 -8.188 1.73479 0 0 0 1.0
-16.36145 -8.12946 1.73727 0 0 0 1.0
-16.82587 -8.20185 1.74979 0 0 0 1.0
-16.80003 -8.23616 1.8401 0 0 0 1.0
-16.746 -8.14168 1.74979 0 0 0 1.0
-16.72015 -8.17599 1.8401 0 0 0 1.0
-16.53867 -8.03781 1.61579 0 0 0 1.0
-16.45706 -7.98068 1.62442 0 0 0 1.0
-16.59602 -7.95589 1.61579 0 0 0 1.0
-16.51441 -7.89875 1.62442 0 0 0 1.0
-16.85417 -8.17047 1.75479 0 0 0 1.0
-16.80059 -8.08957 1.77897 0 0 0 1.0
-16.93754 -8.11525 1.75479 0 0 0 1.0
-16.88396 -8.03435 1.77897 0 0 0 1.0
-16.46093 -7.68653 1.77679 0 0 0 1.0
-16.54632 -7.67027 1.82623 0 0 0 1.0
-16.47964 -7.78476 1.77679 0 0 0 1.0
-16.56503 -7.7685 1.82623 0 0 0 1.0
-16.4018 -8.07786 1.73879 0 0 0 1.0
-16.34049 -8.00232 1.7619 0 0 0 1.0
-16.47944 -8.01484 1.73879 0 0 0 1.0
-16.41813 -7.9393 1.7619 0 0 0 1.0
-16.62584 -8.15913 1.70679 0 0 0 1.0
-16.57037 -8.24177 1.71646 0 0 0 1.0
-16.54282 -8.1034 1.70679 0 0 0 1.0
-16.48734 -8.18603 1.71646 0 0 0 1.0
-16.23653 -8.35415 1.81279 0 0 0 1.0
-16.14549 -8.38354 1.84191 0 0 0 1.0
-16.20581 -8.25899 1.81279 0 0 0 1.0
-16.11477 -8.28838 1.84191 0 0 0 1.0
-17.11695 -8.29482 1.71379 0 0 0 1.0
-17.19236 -8.32729 1.77088 0 0 0 1.0
-17.0774 -8.38667 1.71379 0 0 0 1.0
-17.15282 -8.41914 1.77088 0 0 0 1.0
-16.19295 -8.64692 1.73379 0 0 0 1.0
-16.14939 -8.72574 1.77727 0 0 0 1.0
-16.10542 -8.59855 1.73379 0 0 0 1.0
-16.06186 -8.67737 1.77727 0 0 0 1.0
-16.734 -8.2868 1.79279 0 0 0 1.0
-16.75695 -8.19695 1.83021 0 0 0 1.0
-16.83089 -8.31155 1.79279 0 0 0 1.0
-16.85384 -8.2217 1.83021 0 0 0 1.0
-16.42605 -7.73079 1.92979 0 0 0 1.0
-16.38357 -7.64949 1.96962 0 0 0 1.0
-16.51468 -7.68448 1.92979 0 0 0 1.0
-16.4722 -7.60318 1.96962 0 0 0 1.0
-16.98399 -8.40012 1.74679 0 0 0 1.0
-16.94751 -8.36442 1.83279 0 0 0 1.0
-17.05394 -8.32865 1.74679 0 0 0 1.0
-17.01746 -8.29295 1.83279 0 0 0 1.0
-16.8657 -7.75179 1.69579 0 0 0 1.0
-16.76644 -7.74283 1.70395 0 0 0 1.0
-16.8747 -7.6522 1.69579 0 0 0 1.0
-16.77544 -7.64323 1.70395 0 0 0 1.0
-17.43391 -7.33379 1.60193 0 0 0 1.0
-17.39498 -7.39212 1.67322 0 0 0 1.0
-17.35073 -7.27828 1.60193 0 0 0 1.0
-17.3118 -7.33661 1.67322 0 0 0 1.0
-16.74608 -7.36255 1.64993 0 0 0 1.0
-16.84032 -7.35612 1.68277 0 0 0 1.0
-16.75289 -7.46232 1.64993 0 0 0 1.0
-16.84713 -7.45589 1.68277 0 0 0 1.0
-16.93573 -7.44035 1.66193 0 0 0 1.0
-16.87988 -7.36808 1.70265 0 0 0 1.0
-17.01486 -7.3792 1.66193 0 0 0 1.0
-16.95901 -7.30693 1.70265 0 0 0 1.0
-17.48128 -6.92039 1.75093 0 0 0 1.0
-17.40461 -6.98391 1.76033 0 0 0 1.0
-17.41748 -6.84338 1.75093 0 0 0 1.0
-17.34082 -6.9069 1.76033 0 0 0 1.0
-16.49755 -6.91033 1.84693 0 0 0 1.0
-16.56216 -6.83454 1.85599 0 0 0 1.0
-16.57365 -6.9752 1.84693 0 0 0 1.0
-16.63826 -6.89941 1.85599 0 0 0 1.0
-16.98457 -7.37059 1.63293 0 0 0 1.0
-16.95157 -7.33626 1.72086 0 0 0 1.0
-17.05667 -7.3013 1.63293 0 0 0 1.0
-17.02367 -7.26697 1.72086 0 0 0 1.0
-16.55728 -7.50668 1.63793 0 0 0 1.0
-16.50669 -7.47378 1.71767 0 0 0 1.0
-16.61181 -7.42286 1.63793 0 0 0 1.0
-16.56122 -7.38995 1.71767 0 0 0 1.0
-17.20136 -7.47596 1.77293 0 0 0 1.0
-17.26882 -7.52945 1.82381 0 0 0 1.0
-17.13923 -7.55431 1.77293 0 0 0 1.0
-17.20669 -7.60781 1.82381 0 0 0 1.0
-16.72758 -7.16888 1.76493 0 0 0 1.0
-16.69262 -7.08691 1.8103 0 0 0 1.0
-16.81956 -7.12966 1.76493 0 0 0 1.0
-16.78461 -7.04769 1.8103 0 0 0 1.0
-16.45882 -6.92354 1.68093 0 0 0 1.0
-16.37101 -6.92288 1.72879 0 0 0 1.0
-16.45958 -6.82355 1.68093 0 0 0 1.0
-16.37177 -6.82288 1.72879 0 0 0 1.0
-16.76487 -6.84449 1.60093 0 0 0 1.0
-16.68303 -6.86369 1.65509 0 0 0 1.0
-16.74203 -6.74714 1.60093 0 0 0 1.0
-16.66019 -6.76634 1.65509 0 0 0 1.0
-16.82476 -7.10747 1.76493 0 0 0 1.0
-16.88166 -7.13779 1.84137 0 0 0 1.0
-16.77772 -7.19571 1.76493 0 0 0 1.0
-16.83462 -7.22604 1.84137 0 0 0 1.0
-17.41286 -7.12808 1.62993 0 0 0 1.0
-17.5042 -7.10575 1.66395 0 0 0 1.0
-17.4366 -7.22522 1.62993 0 0 0 1.0
-17.52794 -7.20289 1.66395 0 0 0 1.0
-16.96801 -7.09812 1.66193 0 0 0 1.0
-16.93864 -7.05336 1.74639 0 0 0 1.0
-17.05161 -7.04324 1.66193 0 0 0 1.0
-17.02224 -6.99848 1.74639 0 0 0 1.0
-16.78037 -7.54034 1.86393 0 0 0 1.0
-16.84421 -7.47436 1.90357 0 0 0 1.0
-16.85223 -7.60988 1.86393 0 0 0 1.0
-16.91608 -7.5439 1.90357 0 0 0 1.0
-16.49839 -7.69877 1.62393 0 0 0 1.0
-16.59823 -7.70182 1.62859 0 0 0 1.0
-16.49533 -7.79872 1.62393 0 0 0 1.0
-16.59517 -7.80177 1.62859 0 0 0 1.0
-17.40947 -7.49666 1.76293 0 0 0 1.0
-17.46677 -7.56175 1.81273 0 0 0 1.0
-17.33441 -7.56274 1.76293 0 0 0 1.0
-17.39171 -7.62783 1.81273 0 0 0 1.0
-17.18184 -7.64941 1.83093 0 0 0 1.0
-17.19384 -7.57442 1.89598 0 0 0 1.0
-17.28058 -7.66521 1.83093 0 0 0 1.0
-17.29258 -7.59021 1.89598 0 0 0 1.0
-17.17783 -7.42481 1.58893 0 0 0 1.0
-17.17342 -7.52334 1.60542 0 0 0 1.0
-17.07793 -7.42035 1.58893 0 0 0 1.0
-17.07352 -7.51888 1.60542 0 0 0 1.0
-16.69534 -7.46627 1.81893 0 0 0 1.0
-16.61883 -7.46333 1.88326 0 0 0 1.0
-16.69918 -7.36634 1.81893 0 0 0 1.0
-16.62268 -7.3634 1.88326 0 0 0 1.0
-16.8059 -7.33135 1.69493 0 0 0 1.0
-16.80438 -7.34546 1.79392 0 0 0 1.0
-16.70647 -7.32068 1.69493 0 0 0 1.0
-16.70495 -7.33479 1.79392 0 0 0 1.0
-17.30764 -7.13893 1.62293 0 0 0 1.0
-17.30718 -7.12955 1.72249 0 0 0 1.0
-17.40752 -7.1341 1.62293 0 0 0 1.0
-17.40707 -7.12471 1.72249 0 0 0 1.0
-16.57491 -7.77361 1.65993 0 0 0 1.0
-16.52925 -7.84985 1.70578 0 0 0 1.0
-16.48912 -7.72223 1.65993 0 0 0 1.0
-16.44346 -7.79847 1.70578 0 0 0 1.0
-16.499 -7.35854 1.71893 0 0 0 1.0
-16.50743 -7.30333 1.80188 0 0 0 1.0
-16.59786 -7.37362 1.71893 0 0 0 1.0
-16.60628 -7.31841 1.80188 0 0 0 1.0
-17.02021 -6.9278 1.75193 0 0 0 1.0
-17.06116 -7.01819 1.76429 0 0 0 1.0
-16.92913 -6.96906 1.75193 0 0 0 1.0
-16.97007 -7.05945 1.76429 0 0 0 1.0
-17.13148 -7.54643 1.76093 0 0 0 1.0
-17.06587 -7.60136 1.81269 0 0 0 1.0
-17.06728 -7.46976 1.76093 0 0 0 1.0
-17.00168 -7.52468 1.81269 0 0 0 1.0
-16.5431 -7.64915 1.66893 0 0 0 1.0
-16.47134 -7.59401 1.71146 0 0 0 1.0
-16.60403 -7.56986 1.66893 0 0 0 1.0
-16.53227 -7.51472 1.71146 0 0 0 1.0
-17.29144 -7.72101 1.59593 0 0 0 1.0
-17.28622 -7.7295 1.69543 0 0 0 1.0
-17.20625 -7.66865 1.59593 0 0 0 1.0
-17.20103 -7.67714 1.69543 0 0 0 1.0
-16.77611 -6.81919 1.68493 0 0 0 1.0
-16.68608 -6.78935 1.71661 0 0 0 1.0
-16.80757 -6.72426 1.68493 0 0 0 1.0
-16.71753 -6.69443 1.71661 0 0 0 1.0
-17.39083 -7.68311 1.59693 0 0 0 1.0
-17.33341 -7.61267 1.63865 0 0 0 1.0
-17.46834 -7.61993 1.59693 0 0 0 1.0
-17.41092 -7.54949 1.63865 0 0 0 1.0
-16.68866 -7.38869 1.65393 0 0 0 1.0
-16.68912 -7.39154 1.75389 0 0 0 1.0
-16.58996 -7.40473 1.65393 0 0 0 1.0
-16.59042 -7.40757 1.75389 0 0 0 1.0
-16.89387 -7.10519 1.61293 0 0 0 1.0
-16.80707 -7.07925 1.65529 0 0 0 1.0
-16.9225 -7.00938 1.61293 0 0 0 1.0
-16.83571 -6.98343 1.65529 0 0 0 1.0
-17.30635 -7.42253 1.64493 0 0 0 1.0
-17.29164 -7.343 1.70374 0 0 0 1.0
-17.40468 -7.40435 1.64493 0 0 0 1.0
-17.38998 -7.32482 1.70374 0 0 0 1.0
-17.15208 -7.38739 1.67793 0 0 0 1.0
-17.14889 -7.40558 1.77621 0 0 0 1.0
-17.05358 -7.37013 1.67793 0 0 0 1.0
-17.05039 -7.38831 1.77621 0 0 0 1.0
-16.79882 -7.01589 1.76093 0 0 0 1.0
-16.79284 -6.93149 1.81423 0 0 0 1.0
-16.89857 -7.00883 1.76093 0 0 0 1.0
-16.8926 -6.92443 1.81423 0 0 0 1.0
-16.75127 -7.2333 1.84293 0 0 0 1.0
-16.83048 -7.2614 1.89712 0 0 0 1.0
-16.71783 -7.32755 1.84293 0 0 0 1.0
-16.79704 -7.35565 1.89712 0 0 0 1.0
-16.84699 -6.99095 1.82493 0 0 0 1.0
-16.84422 -7.01695 1.92145 0 0 0 1.0
-16.74755 -6.98037 1.82493 0 0 0 1.0
-16.74478 -7.00638 1.92145 0 0 0 1.0
-16.89232 -6.94562 1.85893 0 0 0 1.0
-16.84353 -7.03156 1.87425 0 0 0 1.0
-16.80537 -6.89624 1.85893 0 0 0 1.0
-16.75657 -6.98217 1.87425 0 0 0 1.0
-16.93221 -7.68161 1.68493 0 0 0 1.0
-16.97312 -7.65744 1.77292 0 0 0 1.0
-16.98308 -7.7677 1.68493 0 0 0 1.0
-17.02399 -7.74353 1.77292 0 0 0 1.0
-17.39577 -7.67408 1.70993 0 0 0 1.0
-17.47809 -7.70599 1.75689 0 0 0 1.0
-17.35963 -7.76732 1.70993 0 0 0 1.0
-17.44195 -7.79923 1.75689 0 0 0 1.0
-16.41414 -7.63088 1.66293 0 0 0 1.0
-16.40077 -7.58201 1.74915 0 0 0 1.0
-16.51059 -7.60451 1.66293 0 0 0 1.0
-16.49723 -7.55564 1.74915 0 0 0 1.0
-16.48102 -7.19068 1.71393 0 0 0 1.0
-16.48793 -7.09756 1.74972 0 0 0 1.0
-16.58074 -7.19808 1.71393 0 0 0 1.0
-16.58765 -7.10496 1.74972 0 0 0 1.0
-16.77777 -7.64839 1.61093 0 0 0 1.0
-16.73711 -7.68008 1.69662 0 0 0 1.0
-16.71631 -7.56951 1.61093 0 0 0 1.0
-16.67565 -7.60119 1.69662 0 0 0 1.0
-16.75186 -7.23964 1.67293 0 0 0 1.0
-16.75377 -7.20615 1.76714 0 0 0 1.0
-16.8517 -7.24535 1.67293 0 0 0 1.0
-16.85361 -7.21186 1.76714 0 0 0 1.0
-16.89133 -7.13117 1.61093 0 0 0 1.0
-16.88939 -7.06107 1.68222 0 0 0 1.0
-16.99129 -7.12841 1.61093 0 0 0 1.0
-16.98936 -7.05831 1.68222 0 0 0 1.0
-16.84412 -7.60928 1.44893 0 0 0 1.0
-16.85628 -7.69352 1.50142 0 0 0 1.0
-16.74515 -7.62357 1.44893 0 0 0 1.0
-16.75731 -7.70781 1.50142 0 0 0 1.0
-17.426 -7.14023 1.53793 0 0 0 1.0
-17.46586 -7.22969 1.55814 0 0 0 1.0
-17.33466 -7.18094 1.53793 0 0 0 1.0
-17.37452 -7.2704 1.55814 0 0 0 1.0
-17.07534 -6.96764 1.61893 0 0 0 1.0
-17.11131 -7.01923 1.69668 0 0 0 1.0
-16.99331 -7.02483 1.61893 0 0 0 1.0
-17.02928 -7.07642 1.69668 0 0 0 1.0
-16.74096 -7.58537 1.60093 0 0 0 1.0
-16.77739 -7.67406 1.62935 0 0 0 1.0
-16.64846 -7.62337 1.60093 0 0 0 1.0
-16.68489 -7.71205 1.62935 0 0 0 1.0
-16.58366 -7.17919 1.53593 0 0 0 1.0
-16.66347 -7.15411 1.59073 0 0 0 1.0
-16.61364 -7.27459 1.53593 0 0 0 1.0
-16.69344 -7.24951 1.59073 0 0 0 1.0
-16.87708 -7.10238 1.59193 0 0 0 1.0
-16.95231 -7.0662 1.64699 0 0 0 1.0
-16.92043 -7.1925 1.59193 0 0 0 1.0
-16.99566 -7.15632 1.64699 0 0 0 1.0
-17.32994 -7.62381 1.66293 0 0 0 1.0
-17.41501 -7.63402 1.7145 0 0 0 1.0
-17.31802 -7.72309 1.66293 0 0 0 1.0
-17.40309 -7.73331 1.7145 0 0 0 1.0
-17.08994 -7.35037 1.58793 0 0 0 1.0
-17.02122 -7.31378 1.6507 0 0 0 1.0
-17.13693 -7.2621 1.58793 0 0 0 1.0
-17.06822 -7.22551 1.6507 0 0 0 1.0
-17.01944 -7.63851 1.68293 0 0 0 1.0
-16.92158 -7.63096 1.7021 0 0 0 1.0
-17.02713 -7.53881 1.68293 0 0 0 1.0
-16.92928 -7.53125 1.7021 0 0 0 1.0
-16.87066 -7.0103 1.77393 0 0 0 1.0
-16.88086 -7.07789 1.84692 0 0 0 1.0
-16.77178 -7.02521 1.77393 0 0 0 1.0
-16.78197 -7.0928 1.84692 0 0 0 1.0
-17.02309 -7.4504 1.63393 0 0 0 1.0
-16.96111 -7.37673 1.66097 0 0 0 1.0
-17.09961 -7.38602 1.63393 0 0 0 1.0
-17.03763 -7.31235 1.66097 0 0 0 1.0
-17.19552 -7.4576 1.62493 0 0 0 1.0
-17.13215 -7.4105 1.68629 0 0 0 1.0
-17.25518 -7.37734 1.62493 0 0 0 1.0
-17.1918 -7.33024 1.68629 0 0 0 1.0
-16.88347 -7.74431 1.70193 0 0 0 1.0
-16.90284 -7.69858 1.78873 0 0 0 1.0
-16.97555 -7.78331 1.70193 0 0 0 1.0
-16.99492 -7.73758 1.78873 0 0 0 1.0
-16.55168 -6.88923 1.62093 0 0 0 1.0
-16.54394 -6.95195 1.69844 0 0 0 1.0
-16.45243 -6.87698 1.62093 0 0 0 1.0
-16.44469 -6.93969 1.69844 0 0 0 1.0
-17.12205 -7.50049 1.69393 0 0 0 1.0
-17.0436 -7.55902 1.71445 0 0 0 1.0
-17.06225 -7.42034 1.69393 0 0 0 1.0
-16.9838 -7.47886 1.71445 0 0 0 1.0
-16.49303 -7.48004 1.55793 0 0 0 1.0
-16.507 -7.403 1.62013 0 0 0 1.0
-16.59143 -7.49788 1.55793 0 0 0 1.0
-16.6054 -7.42084 1.62013 0 0 0 1.0
3 1 0 2
3 1 2 3
3 1 2 0
3 1 3 2
3 5 4 6
3 5 6 7
3 5 6 4
3 5 7 6
3 9 8 10
3 9 10 11
3 9 10 8
3 9 11 10
3 13 12 14
3 13 14 15
3 13 14 12
3 13 15 14
3 17 16 18
3 17 18 19
3 17 18 16
3 17 19 18
3 21 20 22
3 21 22 23
3 21 22 20
3 21 23 22
3 25 24 26
3 25 26 27
3 25 26 24
3 25 27 26
3 29 28 30
3 29 30 31
3 29 30 28
3 29 31 30
3 33 32 34
3 33 34 35
3 33 34 32
3 33 35 34
3 37 36 38
3 37 38 39
3 37 38 36
3 37 39 38
3 41 40 42
3 41 42 43
3 41 42 40
3 41 43 42
3 45 44 46
3 45 46 47
3 45 46 44
3 45 47 46
3 49 48 50
3 49 50 51
3 49 50 48
3 49 51 50
3 53 52 54
3 53 54 55
3 53 54 52
3 53 55 54
3 57 56 58
3 57 58 59
3 57 58 56
3 57 59 58
3 61 60 62
3 61 62 63
3 61 62 60
3 61 63 62
3 65 64 66
3 65 66 67
3 65 66 64
3 65 67 66
3 69 68 70
3 69 70 71
3 69 70 68
3 69 71 70
3 73 72 74
3 73 74 75
3 73 74 72
3 73 75 74
3 77 76 78
3 77 78 79
3 77 78 76
3 77 79 78
3 81 80 82
3 81 82 83
3 81 82 80
3 81 83 82
3 85 84 86
3 85 86 87
3 85 86 84
3 85 87 86
3 89 88 90
3 89 90 91
3 89 90 88
3 89 91 90
3 93 92 94
3 93 94 95
3 93 94 92
3 93 95 94
3 97 96 98
3 97 98 99
3 97 98 96
3 97 99 98
3 101 100 102
3 101 102 103
3 101 102 100
3 101 103 102
3 105 104 106
3 105 106 107
3 105 106 104
3 105 107 106
3 109 108 110
3 109 110 111
3 109 110 108
3 109 111 110
3 113 112 114
3 113 114 115
3 113 114 112
3 113 115 114
3 117 116 118
3 117 118 119
3 117 118 116
3 117 119 118
3 121 120 122
3 121 122 123
3 121 122 120
3 121 123 122
3 125 124 126
3 125 126 127
3 125 126 124
3 125 127 126
3 129 128 130
3 129 130 131
3 129 130 128
3 129 131 130
3 133 132 134
3 133 134 135
3 133 134 132
3 133 135 134
3 137 136 138
3 137 138 139
3 137 138 136
3 137 139 138
3 141 140 142
3 141 142 143
3 141 142 140
3 141 143 142
3 145 144 146
3 145 146 147
3 145 146 144
3 145 147 146
3 149 148 150
3 149 150 151
3 149 150 148
3 149 151 150
3 153 152 154
3 153 154 155
3 153 154 152
3 153 155 154
3 157 156 158
3 157 158 159
3 157 158 156
3 157 159 158
3 161 160 162
3 161 162 163
3 161 162 160
3 161 163 162
3 165 164 166
3 165 166 167
3 165 166 164
3 165 167 166
3 169 168 170
3 169 170 171
3 169 170 168
3 169 171 170
3 173 172 174
3 173 174 175
3 173 174 172
3 173 175 174
3 177 176 178
3 177 178 179
3 177 178 176
3 177 179 178
3 181 180 182
3 181 182 183
3 181 182 180
3 181 183 182
3 185 184 186
3 185 186 187
3 185 186 184
3 185 187 186
3 189 188 190
3 189 190 191
3 189 190 188
3 189 191 190
3 193 192 194
3 193 194 195
3 193 194 192
3 193 195 194
3 197 196 198
3 197 198 199
3 197 198 196
3 197 199 198
3 201 200 202
3 201 202 203
3 201 202 200
3 201 203 202
3 205 204 206
3 205 206 207
3 205 206 204
3 205 207 206
3 209 208 210
3 209 210 211
3 209 210 208
3 209 211 210
3 213 212 214
3 213 214 215
3 213 214 212
3 213 215 214
3 217 216 218
3 217 218 219
3 217 218 216
3 217 219 218
3 221 220 222
3 221 222 223
3 221 222 220
3 221 223 222
3 225 224 226
3 225 226 227
3 225 226 224
3 225 227 226
3 229 228 230
3 229 230 231
3 229 230 228
3 229 231 230
3 233 232 234
3 233 234 235
3 233 234 232
3 233 235 234
3 237 236 238
3 237 238 239
3 237 238 236
3 237 239 238
3 241 240 242
3 241 242 243
3 241 242 240
3 241 243 242
3 245 244 246
3 245 246 247
3 245 246 244
3 245 247 246
3 249 248 250
3 249 250 251
3 249 250 248
3 249 251 250
3 253 252 254
3 253 254 255
3 253 254 252
3 253 255 254
3 257 256 258
3 257 258 259
3 257 258 256
3 257 259 258
3 261 260 262
3 261 262 263
3 261 262 260
3 261 263 262
3 265 264 266
3 265 266 267
3 265 266 264
3 265 267 266
3 269 268 270
3 269 270 271
3 269 270 268
3 269 271 270
3 273 272 274
3 273 274 275
3 273 274 272
3 273 275 274
3 277 276 278
3 277 278 279
3 277 278 276
3 277 279 278
3 281 280 282
3 281 282 283
3 281 282 280
3 281 283 282
3 285 284 286
3 285 286 287
3 285 286 284
3 285 287 286
3 289 288 290
3 289 290 291
3 289 290 288
3 289 291 290
3 293 292 294
3 293 294 295
3 293 294 292
3 293 295 294
3 297 296 298
3 297 298 299
3 297 298 296
3 297 299 298
3 301 300 302
3 301 302 303
3 301 302 300
3 301 303 302
3 305 304 306
3 305 306 307
3 305 306 304
3 305 307 306
3 309 308 310
3 309 310 311
3 309 310 308
3 309 311 310
3 313 312 314
3 313 314 315
3 313 314 312
3 313 315 314
3 317 316 318
3 317 318 319
3 317 318 316
3 317 319 318
3 321 320 322
3 321 322 323
3 321 322 320
3 321 323 322
3 325 324 326
3 325 326 327
3 325 326 324
3 325 327 326
3 329 328 330
3 329 330 331
3 329 330 328
3 329 331 330
3 333 332 334
3 333 334 335
3 333 334 332
3 333 335 334
3 337 336 338
3 337 338 339
3 337 338 336
3 337 339 338
3 341 340 342
3 341 342 343
3 341 342 340
3 341 343 342
3 345 344 346
3 345 346 347
3 345 346 344
3 345 347 346
3 349 348 350
3 349 350 351
3 349 350 348
3 349 351 350
3 353 352 354
3 353 354 355
3 353 354 352
3 353 355 354
3 357 356 358
3 357 358 359
3 357 358 356
3 357 359 358
3 361 360 362
3 361 362 363
3 361 362 360
3 361 363 362
3 365 364 366
3 365 366 367
3 365 366 364
3 365 367 366
3 369 368 370
3 369 370 371
3 369 370 368
3 369 371 370
3 373 372 374
3 373 374 375
3 373 374 372
3 373 375 374
3 377 376 378
3 377 378 379
3 377 378 376
3 377 379 378
3 381 380 382
3 381 382 383
3 381 382 380
3 381 383 382
3 385 384 386
3 385 386 387
3 385 386 384
3 385 387 386
3 389 388 390
3 389 390 391
3 389 390 388
3 389 391 390
3 393 392 394
3 393 394 395
3 393 394 392
3 393 395 394
3 397 396 398
3 397 398 399
3 397 398 396
3 397 399 398
3 401 400 402
3 401 402 403
3 401 402 400
3 401 403 402
3 405 404 406
3 405 406 407
3 405 406 404
3 405 407 406
3 409 408 410
3 409 410 411
3 409 410 408
3 409 411 410
3 413 412 414
3 413 414 415
3 413 414 412
3 413 415 414
3 417 416 418
3 417 418 419
3 417 418 416
3 417 419 418
3 421 420 422
3 421 422 423
3 421 422 420
3 421 423 422
3 425 424 426
3 425 426 427
3 425 426 424
3 425 427 426
3 429 428 430
3 429 430 431
3 429 430 428
3 429 431 430
3 433 432 434
3 433 434 435
3 433 434 432
3 433 435 434
3 437 436 438
3 437 438 439
3 437 438 436
3 437 439 438
3 441 440 442
3 441 442 443
3 441 442 440
3 441 443 442
3 445 444 446
3 445 446 447
3 445 446 444
3 445 447 446
3 449 448 450
3 449 450 451
3 449 450 448
3 449 451 450
3 453 452 454
3 453 454 455
3 453 454 452
3 453 455 454
3 457 456 458
3 457 458 459
3 457 458 456
3 457 459 458
3 461 460 462
3 461 462 463
3 461 462 460
3 461 463 462
3 465 464 466
3 465 466 467
3 465 466 464
3 465 467 466
3 469 468 470
3 469 470 471
3 469 470 468
3 469 471 470
3 473 472 474
3 473 474 475
3 473 474 472
3 473 475 474
3 477 476 478
3 477 478 479
3 477 478 476
3 477 479 478
3 481 480 482
3 481 482 483
3 481 482 480
3 481 483 482
3 485 484 486
3 485 486 487
3 485 486 484
3 485 487 486
3 489 488 490
3 489 490 491
3 489 490 488
3 489 491 490
3 493 492 494
3 493 494 495
3 493 494 492
3 493 495 494
3 497 496 498
3 497 498 499
3 497 498 496
3 497 499 498
3 501 500 502
3 501 502 503
3 501 502 500
3 501 503 502
3 505 504 506
3 505 506 507
3 505 506 504
3 505 507 506
3 509 508 510
3 509 510 511
3 509 510 508
3 509 511 510
3 513 512 514
3 513 514 515
3 513 514 512
3 513 515 514
3 517 516 518
3 517 518 519
3 517 518 516
3 517 519 518
3 521 520 522
3 521 522 523
3 521 522 520
3 521 523 522

