ply
format ascii 1.0
comment Exported by GroIMP
element vertex 620
property float x
property float y
property float z
property uchar red
property uchar green
property uchar blue
property float alpha
element face 310
property list uchar int vertex_indices
end_header
-16.51127 -8.14101 1.77079 0 0 0 1.0
-16.4846 -8.12348 1.86556 0 0 0 1.0
-16.56619 -8.05744 1.77079 0 0 0 1.0
-16.53953 -8.03991 1.86556 0 0 0 1.0
-16.27906 -7.82233 1.71979 0 0 0 1.0
-16.36442 -7.7817 1.7524 0 0 0 1.0
-16.32203 -7.91262 1.71979 0 0 0 1.0
-16.40739 -7.872 1.7524 0 0 0 1.0
-17.04533 -7.85299 1.78079 0 0 0 1.0
-17.06557 -7.85108 1.87871 0 0 0 1.0
-17.0547 -7.95255 1.78079 0 0 0 1.0
-17.07494 -7.95064 1.87871 0 0 0 1.0
-16.62044 -8.28613 1.67779 0 0 0 1.0
-16.57246 -8.35794 1.7282 0 0 0 1.0
-16.5373 -8.23057 1.67779 0 0 0 1.0
-16.48931 -8.30238 1.7282 0 0 0 1.0
-16.95181 -7.93359 1.72679 0 0 0 1.0
-16.88656 -7.87464 1.77442 0 0 0 1.0
-17.01885 -7.85939 1.72679 0 0 0 1.0
-16.9536 -7.80044 1.77442 0 0 0 1.0
-17.01879 -8.38877 1.68579 0 0 0 1.0
-16.98117 -8.46658 1.73611 0 0 0 1.0
-16.92876 -8.34524 1.68579 0 0 0 1.0
-16.89115 -8.42305 1.73611 0 0 0 1.0
-16.58869 -8.10126 1.66879 0 0 0 1.0
-16.5825 -8.10197 1.7686 0 0 0 1.0
-16.57718 -8.00192 1.66879 0 0 0 1.0
-16.57099 -8.00264 1.7686 0 0 0 1.0
-16.97319 -7.74082 1.71479 0 0 0 1.0
-17.00291 -7.66396 1.77143 0 0 0 1.0
-17.06646 -7.77688 1.71479 0 0 0 1.0
-17.09618 -7.70002 1.77143 0 0 0 1.0
-16.45676 -7.87032 1.71979 0 0 0 1.0
-16.48436 -7.91588 1.80442 0 0 0 1.0
-16.37122 -7.92212 1.71979 0 0 0 1.0
-16.39882 -7.96769 1.80442 0 0 0 1.0
-16.54147 -8.2185 1.82079 0 0 0 1.0
-16.63135 -8.18062 1.84285 0 0 0 1.0
-16.58031 -8.31065 1.82079 0 0 0 1.0
-16.67019 -8.27277 1.84285 0 0 0 1.0
-16.77302 -8.61278 1.84779 0 0 0 1.0
-16.71978 -8.67515 1.90502 0 0 0 1.0
-16.69696 -8.54785 1.84779 0 0 0 1.0
-16.64372 -8.61022 1.90502 0 0 0 1.0
-16.36375 -8.45939 1.74479 0 0 0 1.0
-16.35536 -8.36295 1.76985 0 0 0 1.0
-16.46337 -8.45073 1.74479 0 0 0 1.0
-16.45499 -8.35429 1.76985 0 0 0 1.0
-16.8838 -8.01016 1.85279 0 0 0 1.0
-16.88343 -7.92754 1.90913 0 0 0 1.0
-16.9838 -8.00971 1.85279 0 0 0 1.0
-16.98343 -7.92709 1.90913 0 0 0 1.0
-16.73355 -8.01705 1.68579 0 0 0 1.0
-16.82802 -7.99346 1.70858 0 0 0 1.0
-16.75778 -8.11408 1.68579 0 0 0 1.0
-16.85225 -8.09049 1.70858 0 0 0 1.0
-17.01116 -8.22303 1.67779 0 0 0 1.0
-17.05678 -8.14314 1.71699 0 0 0 1.0
-17.098 -8.27262 1.67779 0 0 0 1.0
-17.14362 -8.19273 1.71699 0 0 0 1.0
-16.5359 -8.41141 1.73979 0 0 0 1.0
-16.55361 -8.4949 1.79191 0 0 0 1.0
-16.43807 -8.43216 1.73979 0 0 0 1.0
-16.45579 -8.51565 1.79191 0 0 0 1.0
-16.52088 -8.37311 1.84179 0 0 0 1.0
-16.50003 -8.27769 1.86323 0 0 0 1.0
-16.61858 -8.35177 1.84179 0 0 0 1.0
-16.59773 -8.25634 1.86323 0 0 0 1.0
-16.80673 -8.51404 1.69079 0 0 0 1.0
-16.77453 -8.59596 1.73825 0 0 0 1.0
-16.71366 -8.47746 1.69079 0 0 0 1.0
-16.68146 -8.55938 1.73825 0 0 0 1.0
-16.26228 -7.93613 1.79279 0 0 0 1.0
-16.23673 -7.93212 1.88939 0 0 0 1.0
-16.27779 -7.83734 1.79279 0 0 0 1.0
-16.25224 -7.83333 1.88939 0 0 0 1.0
-16.9129 -7.88845 1.67879 0 0 0 1.0
-16.85328 -7.95551 1.72294 0 0 0 1.0
-16.83816 -7.82201 1.67879 0 0 0 1.0
-16.77855 -7.88907 1.72294 0 0 0 1.0
-16.30012 -8.18745 1.63679 0 0 0 1.0
-16.39166 -8.20985 1.67026 0 0 0 1.0
-16.27635 -8.28458 1.63679 0 0 0 1.0
-16.36788 -8.30699 1.67026 0 0 0 1.0
-16.51663 -8.60444 1.73179 0 0 0 1.0
-16.54318 -8.70013 1.74353 0 0 0 1.0
-16.42027 -8.63117 1.73179 0 0 0 1.0
-16.44682 -8.72687 1.74353 0 0 0 1.0
-16.22194 -8.47246 1.67979 0 0 0 1.0
-16.31732 -8.44883 1.69833 0 0 0 1.0
-16.24599 -8.56952 1.67979 0 0 0 1.0
-16.34137 -8.54589 1.69833 0 0 0 1.0
-16.87838 -7.9347 1.76379 0 0 0 1.0
-16.88256 -8.03313 1.78092 0 0 0 1.0
-16.77847 -7.93893 1.76379 0 0 0 1.0
-16.78265 -8.03737 1.78092 0 0 0 1.0
-16.81355 -7.99319 1.85479 0 0 0 1.0
-16.73153 -7.97526 1.90913 0 0 0 1.0
-16.83491 -7.8955 1.85479 0 0 0 1.0
-16.7529 -7.87756 1.90913 0 0 0 1.0
-16.87341 -8.17737 1.83979 0 0 0 1.0
-16.85296 -8.19831 1.93541 0 0 0 1.0
-16.80187 -8.1075 1.83979 0 0 0 1.0
-16.78142 -8.12844 1.93541 0 0 0 1.0
-16.99783 -7.83484 1.69179 0 0 0 1.0
-17.06618 -7.88059 1.74866 0 0 0 1.0
-16.9422 -7.91794 1.69179 0 0 0 1.0
-17.01056 -7.96369 1.74866 0 0 0 1.0
-16.92707 -8.39391 1.81879 0 0 0 1.0
-16.9024 -8.37152 1.91308 0 0 0 1.0
-16.99428 -8.31987 1.81879 0 0 0 1.0
-16.96961 -8.29748 1.91308 0 0 0 1.0
-16.21105 -8.37572 1.74379 0 0 0 1.0
-16.1382 -8.31823 1.78104 0 0 0 1.0
-16.27299 -8.29721 1.74379 0 0 0 1.0
-16.20014 -8.23973 1.78104 0 0 0 1.0
-16.99366 -8.40285 1.80679 0 0 0 1.0
-16.99249 -8.45266 1.8935 0 0 0 1.0
-16.89368 -8.40052 1.80679 0 0 0 1.0
-16.89252 -8.45032 1.8935 0 0 0 1.0
-16.38416 -7.95493 1.71779 0 0 0 1.0
-16.46715 -8.0083 1.73404 0 0 0 1.0
-16.33007 -8.03904 1.71779 0 0 0 1.0
-16.41306 -8.09241 1.73404 0 0 0 1.0
-16.89395 -8.20785 1.72679 0 0 0 1.0
-16.83694 -8.15481 1.78954 0 0 0 1.0
-16.96206 -8.13463 1.72679 0 0 0 1.0
-16.90505 -8.08159 1.78954 0 0 0 1.0
-17.08019 -8.66791 1.68479 0 0 0 1.0
-17.0308 -8.71537 1.75765 0 0 0 1.0
-17.01089 -8.59581 1.68479 0 0 0 1.0
-16.96151 -8.64327 1.75765 0 0 0 1.0
-17.02706 -8.62817 1.80979 0 0 0 1.0
-17.07502 -8.54647 1.84181 0 0 0 1.0
-17.11329 -8.67879 1.80979 0 0 0 1.0
-17.16126 -8.5971 1.84181 0 0 0 1.0
-16.84051 -8.1819 1.76879 0 0 0 1.0
-16.93586 -8.20099 1.79212 0 0 0 1.0
-16.82088 -8.27996 1.76879 0 0 0 1.0
-16.91623 -8.29905 1.79212 0 0 0 1.0
-16.30173 -8.65055 1.83079 0 0 0 1.0
-16.30289 -8.70648 1.91368 0 0 0 1.0
-16.20175 -8.65262 1.83079 0 0 0 1.0
-16.20291 -8.70856 1.91368 0 0 0 1.0
-16.54369 -8.50895 1.75879 0 0 0 1.0
-16.60656 -8.45849 1.81797 0 0 0 1.0
-16.60628 -8.58694 1.75879 0 0 0 1.0
-16.66915 -8.53648 1.81797 0 0 0 1.0
-16.36119 -7.68637 1.89779 0 0 0 1.0
-16.34879 -7.76798 1.95423 0 0 0 1.0
-16.26233 -7.67134 1.89779 0 0 0 1.0
-16.24992 -7.75295 1.95423 0 0 0 1.0
-16.15349 -8.16147 1.69179 0 0 0 1.0
-16.24379 -8.11852 1.69261 0 0 0 1.0
-16.19644 -8.25178 1.69179 0 0 0 1.0
-16.28674 -8.20882 1.69261 0 0 0 1.0
-16.37948 -8.2662 1.95679 0 0 0 1.0
-16.38068 -8.18455 2.01451 0 0 0 1.0
-16.47946 -8.26768 1.95679 0 0 0 1.0
-16.48067 -8.18602 2.01451 0 0 0 1.0
-16.47852 -7.91896 1.84479 0 0 0 1.0
-16.4853 -7.83633 1.9007 0 0 0 1.0
-16.57818 -7.92715 1.84479 0 0 0 1.0
-16.58497 -7.84451 1.9007 0 0 0 1.0
-16.69575 -8.67355 1.86379 0 0 0 1.0
-16.63866 -8.74106 1.91051 0 0 0 1.0
-16.61939 -8.60898 1.86379 0 0 0 1.0
-16.5623 -8.67649 1.91051 0 0 0 1.0
-16.99832 -8.54608 1.83779 0 0 0 1.0
-16.98523 -8.50233 1.92676 0 0 0 1.0
-17.09413 -8.51742 1.83779 0 0 0 1.0
-17.08104 -8.47367 1.92676 0 0 0 1.0
-16.96251 -8.49468 1.73479 0 0 0 1.0
-17.02655 -8.41813 1.74111 0 0 0 1.0
-17.03922 -8.55884 1.73479 0 0 0 1.0
-17.10325 -8.48229 1.74111 0 0 0 1.0
-16.61134 -8.65039 1.70779 0 0 0 1.0
-16.56676 -8.72196 1.76155 0 0 0 1.0
-16.52646 -8.59752 1.70779 0 0 0 1.0
-16.48188 -8.66909 1.76155 0 0 0 1.0
-16.40336 -8.47833 1.76179 0 0 0 1.0
-16.40132 -8.5689 1.80415 0 0 0 1.0
-16.30338 -8.47608 1.76179 0 0 0 1.0
-16.30135 -8.56665 1.80415 0 0 0 1.0
-16.45607 -8.27927 1.61379 0 0 0 1.0
-16.45312 -8.37079 1.65399 0 0 0 1.0
-16.35612 -8.27605 1.61379 0 0 0 1.0
-16.35317 -8.36757 1.65399 0 0 0 1.0
-16.64406 -8.11637 1.87179 0 0 0 1.0
-16.64371 -8.11695 1.97179 0 0 0 1.0
-16.55849 -8.06461 1.87179 0 0 0 1.0
-16.55814 -8.0652 1.97179 0 0 0 1.0
-16.43559 -8.25655 1.70379 0 0 0 1.0
-16.37857 -8.27493 1.78387 0 0 0 1.0
-16.40491 -8.16137 1.70379 0 0 0 1.0
-16.3479 -8.17975 1.78387 0 0 0 1.0
-16.97743 -7.91011 1.66879 0 0 0 1.0
-17.03462 -7.91144 1.75081 0 0 0 1.0
-16.97509 -8.01008 1.66879 0 0 0 1.0
-17.03229 -8.01142 1.75081 0 0 0 1.0
-16.4355 -8.60466 1.62579 0 0 0 1.0
-16.40852 -8.52057 1.67271 0 0 0 1.0
-16.53072 -8.57411 1.62579 0 0 0 1.0
-16.50374 -8.49002 1.67271 0 0 0 1.0
-16.33627 -8.28937 1.67979 0 0 0 1.0
-16.42115 -8.30743 1.72948 0 0 0 1.0
-16.31546 -8.38718 1.67979 0 0 0 1.0
-16.40035 -8.40524 1.72948 0 0 0 1.0
-17.15483 -8.50821 1.70979 0 0 0 1.0
-17.1422 -8.54225 1.80297 0 0 0 1.0
-17.06108 -8.4734 1.70979 0 0 0 1.0
-17.04845 -8.50744 1.80297 0 0 0 1.0
-16.38774 -7.78536 1.98779 0 0 0 1.0
-16.33446 -7.70512 2.01467 0 0 0 1.0
-16.47105 -7.73005 1.98779 0 0 0 1.0
-16.41777 -7.6498 2.01467 0 0 0 1.0
-16.77151 -7.75868 1.67679 0 0 0 1.0
-16.73208 -7.82192 1.74347 0 0 0 1.0
-16.68666 -7.70577 1.67679 0 0 0 1.0
-16.64722 -7.769 1.74347 0 0 0 1.0
-16.73081 -8.37986 1.89079 0 0 0 1.0
-16.71707 -8.45775 1.95197 0 0 0 1.0
-16.63233 -8.36249 1.89079 0 0 0 1.0
-16.61859 -8.44038 1.95197 0 0 0 1.0
-16.55331 -8.54478 1.70379 0 0 0 1.0
-16.63762 -8.58311 1.74151 0 0 0 1.0
-16.51193 -8.63582 1.70379 0 0 0 1.0
-16.59624 -8.67414 1.74151 0 0 0 1.0
-16.80999 -8.27475 1.85279 0 0 0 1.0
-16.71695 -8.26795 1.88879 0 0 0 1.0
-16.81728 -8.17501 1.85279 0 0 0 1.0
-16.72423 -8.16822 1.88879 0 0 0 1.0
-16.29553 -8.02192 1.72179 0 0 0 1.0
-16.37114 -7.95897 1.73971 0 0 0 1.0
-16.35951 -8.09877 1.72179 0 0 0 1.0
-16.43512 -8.03582 1.73971 0 0 0 1.0
-16.19348 -8.63558 1.84479 0 0 0 1.0
-16.14733 -8.71457 1.88518 0 0 0 1.0
-16.10714 -8.58513 1.84479 0 0 0 1.0
-16.06099 -8.66412 1.88518 0 0 0 1.0
-16.55762 -7.73253 1.70079 0 0 0 1.0
-16.54231 -7.78485 1.78463 0 0 0 1.0
-16.46165 -7.70444 1.70079 0 0 0 1.0
-16.44633 -7.75675 1.78463 0 0 0 1.0
-17.00175 -8.19461 2.04379 0 0 0 1.0
-17.05463 -8.2604 2.09742 0 0 0 1.0
-16.92381 -8.25726 2.04379 0 0 0 1.0
-16.97669 -8.32305 2.09742 0 0 0 1.0
-17.02634 -7.8358 1.93579 0 0 0 1.0
-16.95029 -7.77336 1.95359 0 0 0 1.0
-17.08979 -7.75851 1.93579 0 0 0 1.0
-17.01374 -7.69607 1.95359 0 0 0 1.0
-16.21757 -8.52178 1.70179 0 0 0 1.0
-16.2746 -8.55209 1.77814 0 0 0 1.0
-16.17064 -8.61009 1.70179 0 0 0 1.0
-16.22767 -8.6404 1.77814 0 0 0 1.0
-16.41633 -8.63062 1.84079 0 0 0 1.0
-16.38719 -8.64548 1.93529 0 0 0 1.0
-16.3709 -8.54153 1.84079 0 0 0 1.0
-16.34177 -8.55639 1.93529 0 0 0 1.0
-16.41017 -8.56014 1.77079 0 0 0 1.0
-16.40933 -8.46154 1.78747 0 0 0 1.0
-16.51016 -8.55928 1.77079 0 0 0 1.0
-16.50932 -8.46069 1.78747 0 0 0 1.0
-16.41844 -8.46116 1.71479 0 0 0 1.0
-16.40755 -8.4318 1.80976 0 0 0 1.0
-16.51219 -8.42636 1.71479 0 0 0 1.0
-16.5013 -8.397 1.80976 0 0 0 1.0
-16.51951 -7.82794 1.98879 0 0 0 1.0
-16.45896 -7.74859 1.99485 0 0 0 1.0
-16.59901 -7.76727 1.98879 0 0 0 1.0
-16.53845 -7.68792 1.99485 0 0 0 1.0
-16.81378 -7.05964 1.69293 0 0 0 1.0
-16.80919 -7.06894 1.79239 0 0 0 1.0
-16.7241 -7.01539 1.69293 0 0 0 1.0
-16.71951 -7.02469 1.79239 0 0 0 1.0
-17.35695 -7.09893 1.60093 0 0 0 1.0
-17.35866 -7.01763 1.65914 0 0 0 1.0
-17.45693 -7.10102 1.60093 0 0 0 1.0
-17.45863 -7.01973 1.65914 0 0 0 1.0
-17.15374 -7.14458 1.59193 0 0 0 1.0
-17.09309 -7.09386 1.65315 0 0 0 1.0
-17.21789 -7.06787 1.59193 0 0 0 1.0
-17.15724 -7.01715 1.65315 0 0 0 1.0
-17.0488 -7.79167 1.88493 0 0 0 1.0
-16.96577 -7.75591 1.92768 0 0 0 1.0
-17.08836 -7.69983 1.88493 0 0 0 1.0
-17.00533 -7.66406 1.92768 0 0 0 1.0
-17.27145 -7.44701 1.72693 0 0 0 1.0
-17.27058 -7.45929 1.82617 0 0 0 1.0
-17.1717 -7.43997 1.72693 0 0 0 1.0
-17.17083 -7.45225 1.82617 0 0 0 1.0
-16.75207 -6.78689 1.71793 0 0 0 1.0
-16.75682 -6.8707 1.77226 0 0 0 1.0
-16.65223 -6.79254 1.71793 0 0 0 1.0
-16.65698 -6.87636 1.77226 0 0 0 1.0
-16.78618 -6.85464 1.60893 0 0 0 1.0
-16.74283 -6.93522 1.64927 0 0 0 1.0
-16.69812 -6.80726 1.60893 0 0 0 1.0
-16.65477 -6.88784 1.64927 0 0 0 1.0
-17.22611 -6.80498 1.57493 0 0 0 1.0
-17.24562 -6.71056 1.60145 0 0 0 1.0
-17.32404 -6.82522 1.57493 0 0 0 1.0
-17.34355 -6.73079 1.60145 0 0 0 1.0
-16.69049 -7.64881 1.58193 0 0 0 1.0
-16.72002 -7.73276 1.62755 0 0 0 1.0
-16.59615 -7.68199 1.58193 0 0 0 1.0
-16.62568 -7.76594 1.62755 0 0 0 1.0
-17.35833 -7.08772 1.70693 0 0 0 1.0
-17.44249 -7.04296 1.73715 0 0 0 1.0
-17.40529 -7.17601 1.70693 0 0 0 1.0
-17.48945 -7.13125 1.73715 0 0 0 1.0
-16.98848 -6.76954 1.61893 0 0 0 1.0
-17.08011 -6.73155 1.63153 0 0 0 1.0
-17.02678 -6.86192 1.61893 0 0 0 1.0
-17.11842 -6.82392 1.63153 0 0 0 1.0
-17.18327 -7.61401 1.84293 0 0 0 1.0
-17.15407 -7.52766 1.88405 0 0 0 1.0
-17.278 -7.58198 1.84293 0 0 0 1.0
-17.2488 -7.49563 1.88405 0 0 0 1.0
-17.38918 -7.07926 1.73493 0 0 0 1.0
-17.29707 -7.04243 1.74753 0 0 0 1.0
-17.42631 -6.98641 1.73493 0 0 0 1.0
-17.3342 -6.94958 1.74753 0 0 0 1.0
-16.99465 -7.6336 1.54593 0 0 0 1.0
-17.00716 -7.67102 1.63782 0 0 0 1.0
-16.89981 -7.66529 1.54593 0 0 0 1.0
-16.91231 -7.70272 1.63782 0 0 0 1.0
-17.40686 -7.78463 1.59893 0 0 0 1.0
-17.31017 -7.7807 1.62417 0 0 0 1.0
-17.41092 -7.68471 1.59893 0 0 0 1.0
-17.31424 -7.68078 1.62417 0 0 0 1.0
-17.47327 -7.2125 1.71893 0 0 0 1.0
-17.50218 -7.29907 1.75978 0 0 0 1.0
-17.37842 -7.24417 1.71893 0 0 0 1.0
-17.40733 -7.33074 1.75978 0 0 0 1.0
-16.84727 -7.55288 1.73193 0 0 0 1.0
-16.94372 -7.57784 1.74056 0 0 0 1.0
-16.82221 -7.64969 1.73193 0 0 0 1.0
-16.91866 -7.67465 1.74056 0 0 0 1.0
-16.5662 -7.42267 1.59793 0 0 0 1.0
-16.58056 -7.33372 1.6413 0 0 0 1.0
-16.66492 -7.43861 1.59793 0 0 0 1.0
-16.67928 -7.34965 1.6413 0 0 0 1.0
-16.49474 -7.33869 1.68593 0 0 0 1.0
-16.44893 -7.2717 1.74436 0 0 0 1.0
-16.57728 -7.28224 1.68593 0 0 0 1.0
-16.53147 -7.21525 1.74436 0 0 0 1.0
-16.46364 -7.43067 1.74693 0 0 0 1.0
-16.46658 -7.41014 1.84476 0 0 0 1.0
-16.56263 -7.44484 1.74693 0 0 0 1.0
-16.56557 -7.4243 1.84476 0 0 0 1.0
-17.07324 -7.55495 1.67593 0 0 0 1.0
-17.17142 -7.5519 1.69469 0 0 0 1.0
-17.07634 -7.6549 1.67593 0 0 0 1.0
-17.17452 -7.65186 1.69469 0 0 0 1.0
-16.57425 -7.62437 1.61993 0 0 0 1.0
-16.57764 -7.71398 1.66419 0 0 0 1.0
-16.47432 -7.62815 1.61993 0 0 0 1.0
-16.47771 -7.71776 1.66419 0 0 0 1.0
-17.37565 -6.91356 1.78193 0 0 0 1.0
-17.34524 -6.85562 1.85755 0 0 0 1.0
-17.46419 -6.86708 1.78193 0 0 0 1.0
-17.43378 -6.80914 1.85755 0 0 0 1.0
-17.0424 -7.43781 1.63693 0 0 0 1.0
-17.00837 -7.49184 1.71389 0 0 0 1.0
-16.95779 -7.38451 1.63693 0 0 0 1.0
-16.92376 -7.43854 1.71389 0 0 0 1.0
-17.36752 -7.77517 1.79293 0 0 0 1.0
-17.32643 -7.77347 1.88409 0 0 0 1.0
-17.37165 -7.67525 1.79293 0 0 0 1.0
-17.33056 -7.67356 1.88409 0 0 0 1.0
-16.57407 -7.08888 1.62693 0 0 0 1.0
-16.651 -7.12327 1.68078 0 0 0 1.0
-16.53327 -7.18018 1.62693 0 0 0 1.0
-16.6102 -7.21456 1.68078 0 0 0 1.0
-17.03062 -6.82576 1.69993 0 0 0 1.0
-17.03237 -6.85384 1.79589 0 0 0 1.0
-16.93082 -6.83198 1.69993 0 0 0 1.0
-16.93257 -6.86006 1.79589 0 0 0 1.0
-16.87128 -7.07004 1.88193 0 0 0 1.0
-16.81923 -7.01974 1.95093 0 0 0 1.0
-16.94077 -6.99813 1.88193 0 0 0 1.0
-16.88872 -6.94783 1.95093 0 0 0 1.0
-17.21158 -7.0107 1.72493 0 0 0 1.0
-17.23929 -7.08635 1.78418 0 0 0 1.0
-17.11768 -7.0451 1.72493 0 0 0 1.0
-17.14538 -7.12074 1.78418 0 0 0 1.0
-16.86865 -7.33071 1.57793 0 0 0 1.0
-16.82882 -7.39807 1.6402 0 0 0 1.0
-16.78257 -7.27981 1.57793 0 0 0 1.0
-16.74274 -7.34717 1.6402 0 0 0 1.0
-17.31361 -7.41361 1.54493 0 0 0 1.0
-17.30729 -7.35157 1.62311 0 0 0 1.0
-17.41309 -7.40347 1.54493 0 0 0 1.0
-17.40678 -7.34143 1.62311 0 0 0 1.0
-16.64287 -6.86965 1.63093 0 0 0 1.0
-16.61517 -6.77921 1.66341 0 0 0 1.0
-16.73848 -6.84035 1.63093 0 0 0 1.0
-16.71078 -6.74992 1.66341 0 0 0 1.0
-16.70288 -7.52399 1.67193 0 0 0 1.0
-16.76799 -7.45022 1.68973 0 0 0 1.0
-16.77785 -7.59017 1.67193 0 0 0 1.0
-16.84297 -7.51639 1.68973 0 0 0 1.0
-16.72807 -7.35749 1.70593 0 0 0 1.0
-16.73343 -7.3744 1.80434 0 0 0 1.0
-16.63274 -7.38771 1.70593 0 0 0 1.0
-16.6381 -7.40462 1.80434 0 0 0 1.0
-16.67081 -7.65326 1.66393 0 0 0 1.0
-16.69068 -7.55969 1.69309 0 0 0 1.0
-16.76863 -7.67403 1.66393 0 0 0 1.0
-16.7885 -7.58047 1.69309 0 0 0 1.0
-17.04189 -7.01764 1.65393 0 0 0 1.0
-17.00717 -6.92611 1.67436 0 0 0 1.0
-17.13539 -6.98218 1.65393 0 0 0 1.0
-17.10067 -6.89065 1.67436 0 0 0 1.0
-16.82295 -7.02683 1.61393 0 0 0 1.0
-16.8154 -6.93596 1.65499 0 0 0 1.0
-16.92261 -7.01855 1.61393 0 0 0 1.0
-16.91506 -6.92768 1.65499 0 0 0 1.0
-16.97715 -7.58918 1.78993 0 0 0 1.0
-16.90036 -7.54991 1.84053 0 0 0 1.0
-17.02267 -7.50014 1.78993 0 0 0 1.0
-16.94588 -7.46088 1.84053 0 0 0 1.0
-16.88209 -7.09846 1.71093 0 0 0 1.0
-16.81649 -7.08772 1.78564 0 0 0 1.0
-16.89824 -6.99977 1.71093 0 0 0 1.0
-16.83264 -6.98903 1.78564 0 0 0 1.0
-16.62672 -7.45965 1.62393 0 0 0 1.0
-16.55846 -7.39946 1.6654 0 0 0 1.0
-16.69285 -7.38464 1.62393 0 0 0 1.0
-16.6246 -7.32446 1.6654 0 0 0 1.0
-17.1205 -7.06345 1.82193 0 0 0 1.0
-17.03834 -7.01811 1.85649 0 0 0 1.0
-17.16882 -6.9759 1.82193 0 0 0 1.0
-17.08666 -6.93056 1.85649 0 0 0 1.0
-17.00263 -6.86578 1.67593 0 0 0 1.0
-17.06759 -6.94076 1.68845 0 0 0 1.0
-16.92705 -6.93126 1.67593 0 0 0 1.0
-16.99201 -7.00624 1.68845 0 0 0 1.0
-17.06131 -7.7552 1.67093 0 0 0 1.0
-17.0195 -7.71437 1.75208 0 0 0 1.0
-17.13118 -7.68366 1.67093 0 0 0 1.0
-17.08937 -7.64283 1.75208 0 0 0 1.0
-17.13118 -7.59045 1.61493 0 0 0 1.0
-17.1634 -7.60788 1.70798 0 0 0 1.0
-17.0836 -7.67841 1.61493 0 0 0 1.0
-17.11583 -7.69584 1.70798 0 0 0 1.0
-16.87521 -7.5528 1.67493 0 0 0 1.0
-16.94958 -7.4912 1.7009 0 0 0 1.0
-16.939 -7.62981 1.67493 0 0 0 1.0
-17.01337 -7.56821 1.7009 0 0 0 1.0
-17.18751 -7.73292 1.64093 0 0 0 1.0
-17.22016 -7.64283 1.66953 0 0 0 1.0
-17.28153 -7.76699 1.64093 0 0 0 1.0
-17.31418 -7.67691 1.66953 0 0 0 1.0
-17.18156 -7.47797 1.72793 0 0 0 1.0
-17.26477 -7.51635 1.76795 0 0 0 1.0
-17.13967 -7.56877 1.72793 0 0 0 1.0
-17.22289 -7.60716 1.76795 0 0 0 1.0
-17.04256 -7.38831 1.62093 0 0 0 1.0
-16.97302 -7.45777 1.63936 0 0 0 1.0
-16.97189 -7.31756 1.62093 0 0 0 1.0
-16.90235 -7.38703 1.63936 0 0 0 1.0
-16.68114 -6.89404 1.89793 0 0 0 1.0
-16.59633 -6.89233 1.95089 0 0 0 1.0
-16.68316 -6.79406 1.89793 0 0 0 1.0
-16.59836 -6.79235 1.95089 0 0 0 1.0
-17.05426 -7.67539 1.56793 0 0 0 1.0
-17.06235 -7.58064 1.59888 0 0 0 1.0
-17.1539 -7.68389 1.56793 0 0 0 1.0
-17.16199 -7.58915 1.59888 0 0 0 1.0
-16.96228 -7.63236 1.61793 0 0 0 1.0
-16.97634 -7.69998 1.69025 0 0 0 1.0
-16.86438 -7.65271 1.61793 0 0 0 1.0
-16.87843 -7.72033 1.69025 0 0 0 1.0
-16.62953 -7.49719 1.78593 0 0 0 1.0
-16.54494 -7.45734 1.82138 0 0 0 1.0
-16.67215 -7.40673 1.78593 0 0 0 1.0
-16.58757 -7.36688 1.82138 0 0 0 1.0
-17.00244 -6.92335 1.68593 0 0 0 1.0
-17.07374 -6.86482 1.72454 0 0 0 1.0
-17.06589 -7.00064 1.68593 0 0 0 1.0
-17.13719 -6.94211 1.72454 0 0 0 1.0
-16.56693 -7.70984 1.99993 0 0 0 1.0
-16.61064 -7.62132 2.01585 0 0 0 1.0
-16.65659 -7.75412 1.99993 0 0 0 1.0
-16.70031 -7.6656 2.01585 0 0 0 1.0
-17.05772 -7.48799 1.55593 0 0 0 1.0
-17.13516 -7.42931 1.5796 0 0 0 1.0
-17.11812 -7.5677 1.55593 0 0 0 1.0
-17.19555 -7.50902 1.5796 0 0 0 1.0
-16.91073 -7.51263 1.70393 0 0 0 1.0
-16.82012 -7.47947 1.7302 0 0 0 1.0
-16.9451 -7.41872 1.70393 0 0 0 1.0
-16.85449 -7.38556 1.7302 0 0 0 1.0
-17.34642 -7.4105 1.86993 0 0 0 1.0
-17.34373 -7.50746 1.89426 0 0 0 1.0
-17.24646 -7.40772 1.86993 0 0 0 1.0
-17.24376 -7.50468 1.89426 0 0 0 1.0
-17.02819 -7.18986 1.63993 0 0 0 1.0
-17.01179 -7.28683 1.65805 0 0 0 1.0
-16.92959 -7.17319 1.63993 0 0 0 1.0
-16.91319 -7.27015 1.65805 0 0 0 1.0
-17.45702 -7.08521 1.58293 0 0 0 1.0
-17.43593 -7.09753 1.6799 0 0 0 1.0
-17.40656 -6.99887 1.58293 0 0 0 1.0
-17.38547 -7.0112 1.6799 0 0 0 1.0
-16.58603 -7.47845 1.74393 0 0 0 1.0
-16.67833 -7.49298 1.77956 0 0 0 1.0
-16.57047 -7.57723 1.74393 0 0 0 1.0
-16.66277 -7.59177 1.77956 0 0 0 1.0
-17.1341 -6.97893 1.58793 0 0 0 1.0
-17.13519 -7.07468 1.61675 0 0 0 1.0
-17.03411 -6.98007 1.58793 0 0 0 1.0
-17.0352 -7.07582 1.61675 0 0 0 1.0
-17.05617 -7.06332 1.74693 0 0 0 1.0
-17.02297 -7.1568 1.75953 0 0 0 1.0
-16.96193 -7.02986 1.74693 0 0 0 1.0
-16.92874 -7.12335 1.75953 0 0 0 1.0
-16.538 -7.1008 1.67693 0 0 0 1.0
-16.53653 -7.10321 1.77689 0 0 0 1.0
-16.45261 -7.04876 1.67693 0 0 0 1.0
-16.45114 -7.05117 1.77689 0 0 0 1.0
-16.80351 -7.53742 1.68993 0 0 0 1.0
-16.86907 -7.48312 1.7424 0 0 0 1.0
-16.8673 -7.61444 1.68993 0 0 0 1.0
-16.93286 -7.56014 1.7424 0 0 0 1.0
-16.48782 -7.66177 1.77493 0 0 0 1.0
-16.40945 -7.70863 1.8157 0 0 0 1.0
-16.4365 -7.57595 1.77493 0 0 0 1.0
-16.35813 -7.62281 1.8157 0 0 0 1.0
-17.44752 -6.92399 1.61393 0 0 0 1.0
-17.45749 -6.92414 1.71343 0 0 0 1.0
-17.44609 -7.02398 1.61393 0 0 0 1.0
-17.45605 -7.02413 1.71343 0 0 0 1.0
-17.18114 -7.59063 1.70093 0 0 0 1.0
-17.27444 -7.59197 1.7369 0 0 0 1.0
-17.17971 -7.69062 1.70093 0 0 0 1.0
-17.27301 -7.69196 1.7369 0 0 0 1.0
-17.33816 -7.59167 1.77693 0 0 0 1.0
-17.33841 -7.50826 1.8321 0 0 0 1.0
-17.43815 -7.59197 1.77693 0 0 0 1.0
-17.43841 -7.50856 1.8321 0 0 0 1.0
-17.01774 -7.65087 1.87493 0 0 0 1.0
-16.98592 -7.56722 1.91954 0 0 0 1.0
-17.11121 -7.61532 1.87493 0 0 0 1.0
-17.07939 -7.53166 1.91954 0 0 0 1.0
-17.35003 -7.11593 1.62293 0 0 0 1.0
-17.34987 -7.14176 1.71954 0 0 0 1.0
-17.25003 -7.11531 1.62293 0 0 0 1.0
-17.24987 -7.14114 1.71954 0 0 0 1.0
-16.93648 -7.38148 1.71693 0 0 0 1.0
-16.84198 -7.36321 1.74406 0 0 0 1.0
-16.95546 -7.2833 1.71693 0 0 0 1.0
-16.86096 -7.26503 1.74406 0 0 0 1.0
-17.18357 -7.31093 1.74693 0 0 0 1.0
-17.21154 -7.29202 1.84106 0 0 0 1.0
-17.23958 -7.39377 1.74693 0 0 0 1.0
-17.26754 -7.37486 1.84106 0 0 0 1.0
-17.0723 -6.9176 1.80093 0 0 0 1.0
-17.03955 -6.87186 1.88361 0 0 0 1.0
-17.1536 -6.85938 1.80093 0 0 0 1.0
-17.12085 -6.81364 1.88361 0 0 0 1.0
-17.20016 -6.90369 1.66893 0 0 0 1.0
-17.28846 -6.87786 1.70813 0 0 0 1.0
-17.22824 -6.99966 1.66893 0 0 0 1.0
-17.31653 -6.97384 1.70813 0 0 0 1.0
-17.37271 -6.90882 1.89693 0 0 0 1.0
-17.3885 -6.83555 1.96313 0 0 0 1.0
-17.47047 -6.92989 1.89693 0 0 0 1.0
-17.48626 -6.85662 1.96313 0 0 0 1.0
-16.98474 -7.08283 1.60093 0 0 0 1.0
-17.06075 -7.05877 1.66129 0 0 0 1.0
-17.01492 -7.17816 1.60093 0 0 0 1.0
-17.09093 -7.15411 1.66129 0 0 0 1.0
-17.2889 -7.38586 1.71093 0 0 0 1.0
-17.20807 -7.37724 1.76917 0 0 0 1.0
-17.29951 -7.28642 1.71093 0 0 0 1.0
-17.21867 -7.2778 1.76917 0 0 0 1.0
-17.27511 -7.07373 1.63693 0 0 0 1.0
-17.34852 -7.00721 1.65059 0 0 0 1.0
-17.34226 -7.14783 1.63693 0 0 0 1.0
-17.41566 -7.08131 1.65059 0 0 0 1.0
-17.21703 -7.70794 1.60093 0 0 0 1.0
-17.27853 -7.77475 1.6428 0 0 0 1.0
-17.14345 -7.77566 1.60093 0 0 0 1.0
-17.20496 -7.84248 1.6428 0 0 0 1.0
-16.53659 -7.02747 1.68493 0 0 0 1.0
-16.57538 -6.9399 1.71367 0 0 0 1.0
-16.62802 -7.06798 1.68493 0 0 0 1.0
-16.66681 -6.9804 1.71367 0 0 0 1.0
-17.05294 -7.3942 1.64693 0 0 0 1.0
-17.12887 -7.33859 1.68071 0 0 0 1.0
-17.11202 -7.47488 1.64693 0 0 0 1.0
-17.18796 -7.41927 1.68071 0 0 0 1.0
-17.05866 -6.86092 1.80393 0 0 0 1.0
-17.13126 -6.87209 1.8718 0 0 0 1.0
-17.04347 -6.95976 1.80393 0 0 0 1.0
-17.11606 -6.97093 1.8718 0 0 0 1.0
-16.64367 -6.98609 1.81493 0 0 0 1.0
-16.57706 -6.91326 1.83101 0 0 0 1.0
-16.71746 -6.9186 1.81493 0 0 0 1.0
-16.65085 -6.84577 1.83101 0 0 0 1.0
-16.51986 -7.59797 1.58593 0 0 0 1.0
-16.55341 -7.53853 1.65901 0 0 0 1.0
-16.60695 -7.64712 1.58593 0 0 0 1.0
-16.6405 -7.58768 1.65901 0 0 0 1.0
-16.55352 -7.62205 1.82693 0 0 0 1.0
-16.60531 -7.7074 1.83271 0 0 0 1.0
-16.46803 -7.67393 1.82693 0 0 0 1.0
-16.51982 -7.75927 1.83271 0 0 0 1.0
-16.61223 -7.57127 1.76693 0 0 0 1.0
-16.56611 -7.65245 1.80275 0 0 0 1.0
-16.52529 -7.52187 1.76693 0 0 0 1.0
-16.47917 -7.60305 1.80275 0 0 0 1.0
-16.79897 -7.58724 1.61593 0 0 0 1.0
-16.88978 -7.58455 1.65772 0 0 0 1.0
-16.80193 -7.68719 1.61593 0 0 0 1.0
-16.89274 -7.6845 1.65772 0 0 0 1.0
3 1 0 2
3 1 2 3
3 5 4 6
3 5 6 7
3 9 8 10
3 9 10 11
3 13 12 14
3 13 14 15
3 17 16 18
3 17 18 19
3 21 20 22
3 21 22 23
3 25 24 26
3 25 26 27
3 29 28 30
3 29 30 31
3 33 32 34
3 33 34 35
3 37 36 38
3 37 38 39
3 41 40 42
3 41 42 43
3 45 44 46
3 45 46 47
3 49 48 50
3 49 50 51
3 53 52 54
3 53 54 55
3 57 56 58
3 57 58 59
3 61 60 62
3 61 62 63
3 65 64 66
3 65 66 67
3 69 68 70
3 69 70 71
3 73 72 74
3 73 74 75
3 77 76 78
3 77 78 79
3 81 80 82
3 81 82 83
3 85 84 86
3 85 86 87
3 89 88 90
3 89 90 91
3 93 92 94
3 93 94 95
3 97 96 98
3 97 98 99
3 101 100 102
3 101 102 103
3 105 104 106
3 105 106 107
3 109 108 110
3 109 110 111
3 113 112 114
3 113 114 115
3 117 116 118
3 117 118 119
3 121 120 122
3 121 122 123
3 125 124 126
3 125 126 127
3 129 128 130
3 129 130 131
3 133 132 134
3 133 134 135
3 137 136 138
3 137 138 139
3 141 140 142
3 141 142 143
3 145 144 146
3 145 146 147
3 149 148 150
3 149 150 151
3 153 152 154
3 153 154 155
3 157 156 158
3 157 158 159
3 161 160 162
3 161 162 163
3 165 164 166
3 165 166 167
3 169 168 170
3 169 170 171
3 173 172 174
3 173 174 175
3 177 176 178
3 177 178 179
3 181 180 182
3 181 182 183
3 185 184 186
3 185 186 187
3 189 188 190
3 189 190 191
3 193 192 194
3 193 194 195
3 197 196 198
3 197 198 199
3 201 200 202
3 201 202 203
3 205 204 206
3 205 206 207
3 209 208 210
3 209 210 211
3 213 212 214
3 213 214 215
3 217 216 218
3 217 218 219
3 221 220 222
3 221 222 223
3 225 224 226
3 225 226 227
3 229 228 230
3 229 230 231
3 233 232 234
3 233 234 235
3 237 236 238
3 237 238 239
3 241 240 242
3 241 242 243
3 245 244 246
3 245 246 247
3 249 248 250
3 249 250 251
3 253 252 254
3 253 254 255
3 257 256 258
3 257 258 259
3 261 260 262
3 261 262 263
3 265 264 266
3 265 266 267
3 269 268 270
3 269 270 271
3 273 272 274
3 273 274 275
3 277 276 278
3 277 278 279
3 281 280 282
3 281 282 283
3 285 284 286
3 285 286 287
3 289 288 290
3 289 290 291
3 293 292 294
3 293 294 295
3 297 296 298
3 297 298 299
3 301 300 302
3 301 302 303
3 305 304 306
3 305 306 307
3 309 308 310
3 309 310 311
3 313 312 314
3 313 314 315
3 317 316 318
3 317 318 319
3 321 320 322
3 321 322 323
3 325 324 326
3 325 326 327
3 329 328 330
3 329 330 331
3 333 332 334
3 333 334 335
3 337 336 338
3 337 338 339
3 341 340 342
3 341 342 343
3 345 344 346
3 345 346 347
3 349 348 350
3 349 350 351
3 353 352 354
3 353 354 355
3 357 356 358
3 357 358 359
3 361 360 362
3 361 362 363
3 365 364 366
3 365 366 367
3 369 368 370
3 369 370 371
3 373 372 374
3 373 374 375
3 377 376 378
3 377 378 379
3 381 380 382
3 381 382 383
3 385 384 386
3 385 386 387
3 389 388 390
3 389 390 391
3 393 392 394
3 393 394 395
3 397 396 398
3 397 398 399
3 401 400 402
3 401 402 403
3 405 404 406
3 405 406 407
3 409 408 410
3 409 410 411
3 413 412 414
3 413 414 415
3 417 416 418
3 417 418 419
3 421 420 422
3 421 422 423
3 425 424 426
3 425 426 427
3 429 428 430
3 429 430 431
3 433 432 434
3 433 434 435
3 437 436 438
3 437 438 439
3 441 440 442
3 441 442 443
3 445 444 446
3 445 446 447
3 449 448 450
3 449 450 451
3 453 452 454
3 453 454 455
3 457 456 458
3 457 458 459
3 461 460 462
3 461 462 463
3 465 464 466
3 465 466 467
3 469 468 470
3 469 470 471
3 473 472 474
3 473 474 475
3 477 476 478
3 477 478 479
3 481 480 482
3 481 482 483
3 485 484 486
3 485 486 487
3 489 488 490
3 489 490 491
3 493 492 494
3 493 494 495
3 497 496 498
3 497 498 499
3 501 500 502
3 501 502 503
3 505 504 506
3 505 506 507
3 509 508 510
3 509 510 511
3 513 512 514
3 513 514 515
3 517 516 518
3 517 518 519
3 521 520 522
3 521 522 523
3 525 524 526
3 525 526 527
3 529 528 530
3 529 530 531
3 533 532 534
3 533 534 535
3 537 536 538
3 537 538 539
3 541 540 542
3 541 542 543
3 545 544 546
3 545 546 547
3 549 548 550
3 549 550 551
3 553 552 554
3 553 554 555
3 557 556 558
3 557 558 559
3 561 560 562
3 561 562 563
3 565 564 566
3 565 566 567
3 569 568 570
3 569 570 571
3 573 572 574
3 573 574 575
3 577 576 578
3 577 578 579
3 581 580 582
3 581 582 583
3 585 584 586
3 585 586 587
3 589 588 590
3 589 590 591
3 593 592 594
3 593 594 595
3 597 596 598
3 597 598 599
3 601 600 602
3 601 602 603
3 605 604 606
3 605 606 607
3 609 608 610
3 609 610 611
3 613 612 614
3 613 614 615
3 617 616 618
3 617 618 619

