ply
format ascii 1.0
comment Exported by GroIMP
element vertex 300
property float x
property float y
property float z
property uchar red
property uchar green
property uchar blue
property float alpha
element face 300
property list uchar int vertex_indices
end_header
-16.39697 -8.52318 1.79079 0 0 0 1.0
-16.3551 -8.61365 1.79874 0 0 0 1.0
-16.30622 -8.48118 1.79079 0 0 0 1.0
-16.26435 -8.57164 1.79874 0 0 0 1.0
-16.4947 -8.14769 1.71079 0 0 0 1.0
-16.4578 -8.15008 1.80371 0 0 0 1.0
-16.48826 -8.0479 1.71079 0 0 0 1.0
-16.45136 -8.05028 1.80371 0 0 0 1.0
-16.65464 -7.7528 1.83679 0 0 0 1.0
-16.73903 -7.79221 1.87318 0 0 0 1.0
-16.61232 -7.8434 1.83679 0 0 0 1.0
-16.69672 -7.88282 1.87318 0 0 0 1.0
-17.01766 -8.32375 1.66179 0 0 0 1.0
-16.94083 -8.38693 1.67211 0 0 0 1.0
-16.95414 -8.24652 1.66179 0 0 0 1.0
-16.87731 -8.3097 1.67211 0 0 0 1.0
-16.79543 -8.30323 1.77179 0 0 0 1.0
-16.87608 -8.24835 1.79378 0 0 0 1.0
-16.85168 -8.3859 1.77179 0 0 0 1.0
-16.93234 -8.33102 1.79378 0 0 0 1.0
-16.91643 -8.168 1.69479 0 0 0 1.0
-16.96889 -8.17926 1.77918 0 0 0 1.0
-16.89545 -8.26577 1.69479 0 0 0 1.0
-16.94791 -8.27703 1.77918 0 0 0 1.0
-17.12974 -7.70966 1.75979 0 0 0 1.0
-17.08376 -7.74013 1.8432 0 0 0 1.0
-17.0745 -7.6263 1.75979 0 0 0 1.0
-17.02852 -7.65678 1.8432 0 0 0 1.0
-16.47372 -8.17275 1.88679 0 0 0 1.0
-16.47536 -8.24326 1.95769 0 0 0 1.0
-16.37375 -8.17508 1.88679 0 0 0 1.0
-16.37539 -8.24559 1.95769 0 0 0 1.0
-16.80434 -8.36368 1.68479 0 0 0 1.0
-16.73263 -8.38863 1.74987 0 0 0 1.0
-16.77147 -8.26923 1.68479 0 0 0 1.0
-16.69976 -8.29419 1.74987 0 0 0 1.0
-17.16457 -8.63271 1.74679 0 0 0 1.0
-17.08736 -8.6946 1.76123 0 0 0 1.0
-17.10202 -8.55468 1.74679 0 0 0 1.0
-17.02481 -8.61657 1.76123 0 0 0 1.0
-16.71698 -7.90385 1.83779 0 0 0 1.0
-16.78368 -7.88453 1.90975 0 0 0 1.0
-16.74479 -7.9999 1.83779 0 0 0 1.0
-16.81149 -7.98059 1.90975 0 0 0 1.0
-16.73755 -7.98496 1.95279 0 0 0 1.0
-16.71025 -7.97142 2.04804 0 0 0 1.0
-16.78196 -7.89536 1.95279 0 0 0 1.0
-16.75466 -7.88183 2.04804 0 0 0 1.0
-16.76127 -7.79689 1.78679 0 0 0 1.0
-16.85646 -7.78566 1.8153 0 0 0 1.0
-16.77298 -7.8962 1.78679 0 0 0 1.0
-16.86817 -7.88497 1.8153 0 0 0 1.0
-16.33322 -8.30211 1.93179 0 0 0 1.0
-16.32457 -8.31087 2.03103 0 0 0 1.0
-16.26208 -8.23183 1.93179 0 0 0 1.0
-16.25343 -8.24059 2.03103 0 0 0 1.0
-16.46176 -7.897 1.77879 0 0 0 1.0
-16.42524 -7.98907 1.79259 0 0 0 1.0
-16.36881 -7.86013 1.77879 0 0 0 1.0
-16.33228 -7.95219 1.79259 0 0 0 1.0
-16.42519 -8.15436 1.85379 0 0 0 1.0
-16.34096 -8.11916 1.89461 0 0 0 1.0
-16.46375 -8.06209 1.85379 0 0 0 1.0
-16.37952 -8.02689 1.89461 0 0 0 1.0
-16.89459 -8.33949 1.71279 0 0 0 1.0
-16.80358 -8.32069 1.74974 0 0 0 1.0
-16.91482 -8.24156 1.71279 0 0 0 1.0
-16.82381 -8.22276 1.74974 0 0 0 1.0
-16.10658 -7.86504 1.61179 0 0 0 1.0
-16.09352 -7.76813 1.63269 0 0 0 1.0
-16.20569 -7.85169 1.61179 0 0 0 1.0
-16.19263 -7.75477 1.63269 0 0 0 1.0
-16.49066 -8.35988 1.64879 0 0 0 1.0
-16.44964 -8.446 1.67881 0 0 0 1.0
-16.40038 -8.31688 1.64879 0 0 0 1.0
-16.35936 -8.403 1.67881 0 0 0 1.0
-17.02324 -7.93817 1.68879 0 0 0 1.0
-16.9906 -7.88746 1.76856 0 0 0 1.0
-17.10733 -7.88404 1.68879 0 0 0 1.0
-17.07469 -7.83333 1.76856 0 0 0 1.0
-16.80731 -7.99266 1.79479 0 0 0 1.0
-16.77811 -8.06181 1.86086 0 0 0 1.0
-16.71519 -7.95376 1.79479 0 0 0 1.0
-16.68599 -8.02292 1.86086 0 0 0 1.0
-16.53647 -8.61782 1.76479 0 0 0 1.0
-16.55118 -8.58656 1.85864 0 0 0 1.0
-16.62695 -8.6604 1.76479 0 0 0 1.0
-16.64166 -8.62914 1.85864 0 0 0 1.0
-16.78342 -8.18061 1.94579 0 0 0 1.0
-16.75892 -8.12663 2.02633 0 0 0 1.0
-16.87448 -8.13928 1.94579 0 0 0 1.0
-16.84998 -8.08531 2.02633 0 0 0 1.0
-16.98561 -8.35922 1.68079 0 0 0 1.0
-16.93385 -8.28471 1.72285 0 0 0 1.0
-17.06774 -8.30218 1.68079 0 0 0 1.0
-17.01599 -8.22766 1.72285 0 0 0 1.0
-16.64851 -8.69415 1.76879 0 0 0 1.0
-16.58117 -8.70881 1.84125 0 0 0 1.0
-16.62725 -8.59644 1.76879 0 0 0 1.0
-16.5599 -8.6111 1.84125 0 0 0 1.0
-16.76301 -8.12916 1.77079 0 0 0 1.0
-16.72647 -8.03796 1.78939 0 0 0 1.0
-16.85584 -8.09197 1.77079 0 0 0 1.0
-16.81929 -8.00076 1.78939 0 0 0 1.0
-17.0022 -8.43517 1.77279 0 0 0 1.0
-16.91834 -8.38191 1.78422 0 0 0 1.0
-17.05582 -8.35076 1.77279 0 0 0 1.0
-16.97196 -8.29749 1.78422 0 0 0 1.0
-16.78556 -8.07456 1.77479 0 0 0 1.0
-16.79524 -8.07319 1.87431 0 0 0 1.0
-16.79953 -8.17358 1.77479 0 0 0 1.0
-16.80921 -8.17221 1.87431 0 0 0 1.0
-16.901 -8.51999 1.81479 0 0 0 1.0
-16.82965 -8.49056 1.87839 0 0 0 1.0
-16.93913 -8.42755 1.81479 0 0 0 1.0
-16.86779 -8.39812 1.87839 0 0 0 1.0
-16.88493 -8.2668 1.76679 0 0 0 1.0
-16.91938 -8.34673 1.81602 0 0 0 1.0
-16.79309 -8.30637 1.76679 0 0 0 1.0
-16.82754 -8.38631 1.81602 0 0 0 1.0
-16.18357 -8.21356 1.86979 0 0 0 1.0
-16.25675 -8.19103 1.93411 0 0 0 1.0
-16.21299 -8.30914 1.86979 0 0 0 1.0
-16.28617 -8.28661 1.93411 0 0 0 1.0
-16.37615 -7.8782 1.77179 0 0 0 1.0
-16.42339 -7.96531 1.78526 0 0 0 1.0
-16.28825 -7.92588 1.77179 0 0 0 1.0
-16.33549 -8.01298 1.78526 0 0 0 1.0
-16.17428 -8.48779 1.82579 0 0 0 1.0
-16.09038 -8.46068 1.87299 0 0 0 1.0
-16.20502 -8.39263 1.82579 0 0 0 1.0
-16.12113 -8.36552 1.87299 0 0 0 1.0
-16.77051 -8.59238 1.81679 0 0 0 1.0
-16.67237 -8.6019 1.83347 0 0 0 1.0
-16.76086 -8.49285 1.81679 0 0 0 1.0
-16.66272 -8.50236 1.83347 0 0 0 1.0
-16.64112 -8.04719 1.75679 0 0 0 1.0
-16.54667 -8.06726 1.78283 0 0 0 1.0
-16.62034 -7.94938 1.75679 0 0 0 1.0
-16.52589 -7.96944 1.78283 0 0 0 1.0
-16.48266 -7.90403 1.68579 0 0 0 1.0
-16.46421 -7.83339 1.75412 0 0 0 1.0
-16.57942 -7.87876 1.68579 0 0 0 1.0
-16.56096 -7.80812 1.75412 0 0 0 1.0
-16.29549 -8.29079 1.74679 0 0 0 1.0
-16.38749 -8.25499 1.76275 0 0 0 1.0
-16.33176 -8.38398 1.74679 0 0 0 1.0
-16.42376 -8.34818 1.76275 0 0 0 1.0
-16.58495 -7.85521 1.87779 0 0 0 1.0
-16.50602 -7.90157 1.91805 0 0 0 1.0
-16.5343 -7.76898 1.87779 0 0 0 1.0
-16.45537 -7.81534 1.91805 0 0 0 1.0
-17.02686 -8.49394 1.80879 0 0 0 1.0
-17.08631 -8.56873 1.83833 0 0 0 1.0
-16.94858 -8.55617 1.80879 0 0 0 1.0
-17.00803 -8.63095 1.83833 0 0 0 1.0
-16.99585 -8.58152 1.87979 0 0 0 1.0
-16.89909 -8.60185 1.89473 0 0 0 1.0
-16.97529 -8.48366 1.87979 0 0 0 1.0
-16.87853 -8.50399 1.89473 0 0 0 1.0
-16.57149 -8.60361 1.78279 0 0 0 1.0
-16.5279 -8.67677 1.83521 0 0 0 1.0
-16.48559 -8.55242 1.78279 0 0 0 1.0
-16.44199 -8.62559 1.83521 0 0 0 1.0
-16.86614 -7.75697 1.64079 0 0 0 1.0
-16.86257 -7.67148 1.69254 0 0 0 1.0
-16.96605 -7.7528 1.64079 0 0 0 1.0
-16.96248 -7.6673 1.69254 0 0 0 1.0
-16.82711 -7.89381 1.84079 0 0 0 1.0
-16.76516 -7.84212 1.89987 0 0 0 1.0
-16.89118 -7.81703 1.84079 0 0 0 1.0
-16.82923 -7.76533 1.89987 0 0 0 1.0
-16.95716 -7.73834 1.77979 0 0 0 1.0
-16.91367 -7.8017 1.84378 0 0 0 1.0
-16.87472 -7.68175 1.77979 0 0 0 1.0
-16.83122 -7.7451 1.84378 0 0 0 1.0
-16.69158 -8.01362 1.94479 0 0 0 1.0
-16.66885 -7.97805 2.03545 0 0 0 1.0
-16.77584 -7.95976 1.94479 0 0 0 1.0
-16.75311 -7.92419 2.03545 0 0 0 1.0
-16.41515 -8.08265 1.78079 0 0 0 1.0
-16.49671 -8.03896 1.81874 0 0 0 1.0
-16.46238 -8.1708 1.78079 0 0 0 1.0
-16.54393 -8.1271 1.81874 0 0 0 1.0
-16.19832 -8.65703 1.68579 0 0 0 1.0
-16.17917 -8.67321 1.7826 0 0 0 1.0
-16.13378 -8.58065 1.68579 0 0 0 1.0
-16.11463 -8.59683 1.7826 0 0 0 1.0
-16.54961 -8.38901 1.68779 0 0 0 1.0
-16.51062 -8.3257 1.75467 0 0 0 1.0
-16.63476 -8.33658 1.68779 0 0 0 1.0
-16.59577 -8.27327 1.75467 0 0 0 1.0
-16.45797 -7.74016 1.77379 0 0 0 1.0
-16.37444 -7.73782 1.82872 0 0 0 1.0
-16.46077 -7.6402 1.77379 0 0 0 1.0
-16.37724 -7.63786 1.82872 0 0 0 1.0
-16.71848 -7.70976 1.77079 0 0 0 1.0
-16.67578 -7.69077 1.8592 0 0 0 1.0
-16.75912 -7.61839 1.77079 0 0 0 1.0
-16.71642 -7.5994 1.8592 0 0 0 1.0
-17.02048 -7.82612 1.75979 0 0 0 1.0
-17.01596 -7.76937 1.84201 0 0 0 1.0
-17.12016 -7.81819 1.75979 0 0 0 1.0
-17.11565 -7.76144 1.84201 0 0 0 1.0
-16.66483 -8.39938 1.91879 0 0 0 1.0
-16.72285 -8.31927 1.93354 0 0 0 1.0
-16.74582 -8.45804 1.91879 0 0 0 1.0
-16.80384 -8.37793 1.93354 0 0 0 1.0
-16.4027 -7.78666 1.75879 0 0 0 1.0
-16.40095 -7.8291 1.84933 0 0 0 1.0
-16.30279 -7.78255 1.75879 0 0 0 1.0
-16.30104 -7.82498 1.84933 0 0 0 1.0
-16.9046 -7.68917 1.69779 0 0 0 1.0
-16.97847 -7.74747 1.73163 0 0 0 1.0
-16.84265 -7.76767 1.69779 0 0 0 1.0
-16.91652 -7.82597 1.73163 0 0 0 1.0
-17.01924 -8.50667 1.73579 0 0 0 1.0
-16.98223 -8.59949 1.73967 0 0 0 1.0
-16.92635 -8.46963 1.73579 0 0 0 1.0
-16.88934 -8.56244 1.73967 0 0 0 1.0
-16.58351 -7.96715 1.78579 0 0 0 1.0
-16.63482 -7.90572 1.84574 0 0 0 1.0
-16.66026 -8.03126 1.78579 0 0 0 1.0
-16.71157 -7.96983 1.84574 0 0 0 1.0
-16.7791 -8.58196 1.72979 0 0 0 1.0
-16.8137 -8.67223 1.75537 0 0 0 1.0
-16.68572 -8.61775 1.72979 0 0 0 1.0
-16.72033 -8.70802 1.75537 0 0 0 1.0
-16.24064 -8.4415 1.66979 0 0 0 1.0
-16.30404 -8.49379 1.72676 0 0 0 1.0
-16.17701 -8.51865 1.66979 0 0 0 1.0
-16.24041 -8.57094 1.72676 0 0 0 1.0
-16.39987 -8.44962 1.84379 0 0 0 1.0
-16.37673 -8.44435 1.94094 0 0 0 1.0
-16.42207 -8.35212 1.84379 0 0 0 1.0
-16.39893 -8.34685 1.94094 0 0 0 1.0
-16.41303 -7.95617 1.60079 0 0 0 1.0
-16.36808 -8.04223 1.62471 0 0 0 1.0
-16.32439 -7.90988 1.60079 0 0 0 1.0
-16.27944 -7.99594 1.62471 0 0 0 1.0
-16.84534 -8.14713 1.68079 0 0 0 1.0
-16.83393 -8.05695 1.72248 0 0 0 1.0
-16.94455 -8.13457 1.68079 0 0 0 1.0
-16.93314 -8.0444 1.72248 0 0 0 1.0
-16.71608 -8.34886 1.70079 0 0 0 1.0
-16.75226 -8.26152 1.73338 0 0 0 1.0
-16.80847 -8.38713 1.70079 0 0 0 1.0
-16.84465 -8.29979 1.73338 0 0 0 1.0
-16.55749 -8.54039 1.83379 0 0 0 1.0
-16.63719 -8.58226 1.87733 0 0 0 1.0
-16.51098 -8.62891 1.83379 0 0 0 1.0
-16.59068 -8.67078 1.87733 0 0 0 1.0
-17.05499 -7.76733 1.69379 0 0 0 1.0
-17.0059 -7.85016 1.7208 0 0 0 1.0
-16.96897 -7.71634 1.69379 0 0 0 1.0
-16.91988 -7.79917 1.7208 0 0 0 1.0
-16.11309 -8.55287 1.80379 0 0 0 1.0
-16.07556 -8.48886 1.87084 0 0 0 1.0
-16.19935 -8.5023 1.80379 0 0 0 1.0
-16.16183 -8.43829 1.87084 0 0 0 1.0
-16.87211 -8.04646 1.78379 0 0 0 1.0
-16.84349 -8.07857 1.87407 0 0 0 1.0
-16.79746 -7.97992 1.78379 0 0 0 1.0
-16.76883 -8.01204 1.87407 0 0 0 1.0
-16.22678 -8.27242 1.76779 0 0 0 1.0
-16.24911 -8.36796 1.78711 0 0 0 1.0
-16.1294 -8.29519 1.76779 0 0 0 1.0
-16.15174 -8.39073 1.78711 0 0 0 1.0
-16.67249 -7.87523 1.87079 0 0 0 1.0
-16.62118 -7.89631 1.954 0 0 0 1.0
-16.63449 -7.78273 1.87079 0 0 0 1.0
-16.58318 -7.80381 1.954 0 0 0 1.0
-16.20094 -8.47558 1.81979 0 0 0 1.0
-16.11918 -8.4776 1.87734 0 0 0 1.0
-16.19847 -8.37561 1.81979 0 0 0 1.0
-16.11671 -8.37763 1.87734 0 0 0 1.0
-16.39328 -8.60291 1.79579 0 0 0 1.0
-16.3501 -8.59684 1.88579 0 0 0 1.0
-16.4072 -8.50388 1.79579 0 0 0 1.0
-16.36403 -8.49781 1.88579 0 0 0 1.0
-16.51443 -7.94353 1.68879 0 0 0 1.0
-16.58709 -8.0047 1.72011 0 0 0 1.0
-16.45003 -8.02003 1.68879 0 0 0 1.0
-16.52268 -8.0812 1.72011 0 0 0 1.0
-16.44045 -8.1342 1.89779 0 0 0 1.0
-16.48846 -8.05607 1.93767 0 0 0 1.0
-16.52566 -8.18655 1.89779 0 0 0 1.0
-16.57367 -8.10842 1.93767 0 0 0 1.0
-16.50479 -8.32986 1.67479 0 0 0 1.0
-16.50228 -8.42554 1.70376 0 0 0 1.0
-16.40483 -8.32724 1.67479 0 0 0 1.0
-16.40231 -8.42292 1.70376 0 0 0 1.0
-16.94113 -8.07034 1.67579 0 0 0 1.0
-16.8444 -8.09265 1.68786 0 0 0 1.0
-16.91865 -7.9729 1.67579 0 0 0 1.0
-16.82192 -7.99521 1.68786 0 0 0 1.0
-16.5906 -8.03418 1.67879 0 0 0 1.0
-16.52352 -7.97952 1.72891 0 0 0 1.0
-16.65376 -7.95666 1.67879 0 0 0 1.0
-16.58668 -7.902 1.72891 0 0 0 1.0
3 1 0 2
3 1 2 3
3 1 2 0
3 1 3 2
3 5 4 6
3 5 6 7
3 5 6 4
3 5 7 6
3 9 8 10
3 9 10 11
3 9 10 8
3 9 11 10
3 13 12 14
3 13 14 15
3 13 14 12
3 13 15 14
3 17 16 18
3 17 18 19
3 17 18 16
3 17 19 18
3 21 20 22
3 21 22 23
3 21 22 20
3 21 23 22
3 25 24 26
3 25 26 27
3 25 26 24
3 25 27 26
3 29 28 30
3 29 30 31
3 29 30 28
3 29 31 30
3 33 32 34
3 33 34 35
3 33 34 32
3 33 35 34
3 37 36 38
3 37 38 39
3 37 38 36
3 37 39 38
3 41 40 42
3 41 42 43
3 41 42 40
3 41 43 42
3 45 44 46
3 45 46 47
3 45 46 44
3 45 47 46
3 49 48 50
3 49 50 51
3 49 50 48
3 49 51 50
3 53 52 54
3 53 54 55
3 53 54 52
3 53 55 54
3 57 56 58
3 57 58 59
3 57 58 56
3 57 59 58
3 61 60 62
3 61 62 63
3 61 62 60
3 61 63 62
3 65 64 66
3 65 66 67
3 65 66 64
3 65 67 66
3 69 68 70
3 69 70 71
3 69 70 68
3 69 71 70
3 73 72 74
3 73 74 75
3 73 74 72
3 73 75 74
3 77 76 78
3 77 78 79
3 77 78 76
3 77 79 78
3 81 80 82
3 81 82 83
3 81 82 80
3 81 83 82
3 85 84 86
3 85 86 87
3 85 86 84
3 85 87 86
3 89 88 90
3 89 90 91
3 89 90 88
3 89 91 90
3 93 92 94
3 93 94 95
3 93 94 92
3 93 95 94
3 97 96 98
3 97 98 99
3 97 98 96
3 97 99 98
3 101 100 102
3 101 102 103
3 101 102 100
3 101 103 102
3 105 104 106
3 105 106 107
3 105 106 104
3 105 107 106
3 109 108 110
3 109 110 111
3 109 110 108
3 109 111 110
3 113 112 114
3 113 114 115
3 113 114 112
3 113 115 114
3 117 116 118
3 117 118 119
3 117 118 116
3 117 119 118
3 121 120 122
3 121 122 123
3 121 122 120
3 121 123 122
3 125 124 126
3 125 126 127
3 125 126 124
3 125 127 126
3 129 128 130
3 129 130 131
3 129 130 128
3 129 131 130
3 133 132 134
3 133 134 135
3 133 134 132
3 133 135 134
3 137 136 138
3 137 138 139
3 137 138 136
3 137 139 138
3 141 140 142
3 141 142 143
3 141 142 140
3 141 143 142
3 145 144 146
3 145 146 147
3 145 146 144
3 145 147 146
3 149 148 150
3 149 150 151
3 149 150 148
3 149 151 150
3 153 152 154
3 153 154 155
3 153 154 152
3 153 155 154
3 157 156 158
3 157 158 159
3 157 158 156
3 157 159 158
3 161 160 162
3 161 162 163
3 161 162 160
3 161 163 162
3 165 164 166
3 165 166 167
3 165 166 164
3 165 167 166
3 169 168 170
3 169 170 171
3 169 170 168
3 169 171 170
3 173 172 174
3 173 174 175
3 173 174 172
3 173 175 174
3 177 176 178
3 177 178 179
3 177 178 176
3 177 179 178
3 181 180 182
3 181 182 183
3 181 182 180
3 181 183 182
3 185 184 186
3 185 186 187
3 185 186 184
3 185 187 186
3 189 188 190
3 189 190 191
3 189 190 188
3 189 191 190
3 193 192 194
3 193 194 195
3 193 194 192
3 193 195 194
3 197 196 198
3 197 198 199
3 197 198 196
3 197 199 198
3 201 200 202
3 201 202 203
3 201 202 200
3 201 203 202
3 205 204 206
3 205 206 207
3 205 206 204
3 205 207 206
3 209 208 210
3 209 210 211
3 209 210 208
3 209 211 210
3 213 212 214
3 213 214 215
3 213 214 212
3 213 215 214
3 217 216 218
3 217 218 219
3 217 218 216
3 217 219 218
3 221 220 222
3 221 222 223
3 221 222 220
3 221 223 222
3 225 224 226
3 225 226 227
3 225 226 224
3 225 227 226
3 229 228 230
3 229 230 231
3 229 230 228
3 229 231 230
3 233 232 234
3 233 234 235
3 233 234 232
3 233 235 234
3 237 236 238
3 237 238 239
3 237 238 236
3 237 239 238
3 241 240 242
3 241 242 243
3 241 242 240
3 241 243 242
3 245 244 246
3 245 246 247
3 245 246 244
3 245 247 246
3 249 248 250
3 249 250 251
3 249 250 248
3 249 251 250
3 253 252 254
3 253 254 255
3 253 254 252
3 253 255 254
3 257 256 258
3 257 258 259
3 257 258 256
3 257 259 258
3 261 260 262
3 261 262 263
3 261 262 260
3 261 263 262
3 265 264 266
3 265 266 267
3 265 266 264
3 265 267 266
3 269 268 270
3 269 270 271
3 269 270 268
3 269 271 270
3 273 272 274
3 273 274 275
3 273 274 272
3 273 275 274
3 277 276 278
3 277 278 279
3 277 278 276
3 277 279 278
3 281 280 282
3 281 282 283
3 281 282 280
3 281 283 282
3 285 284 286
3 285 286 287
3 285 286 284
3 285 287 286
3 289 288 290
3 289 290 291
3 289 290 288
3 289 291 290
3 293 292 294
3 293 294 295
3 293 294 292
3 293 295 294
3 297 296 298
3 297 298 299
3 297 298 296
3 297 299 298

